<?xml version="1.0" encoding="utf-8" standalone="no"?>
<!DOCTYPE svg PUBLIC "-//W3C//DTD SVG 1.1//EN"
  "http://www.w3.org/Graphics/SVG/1.1/DTD/svg11.dtd">
<svg xmlns:xlink="http://www.w3.org/1999/xlink" width="288pt" height="288pt" viewBox="0 0 288 288" xmlns="http://www.w3.org/2000/svg" version="1.1">
 <metadata>
  <rdf:RDF xmlns:dc="http://purl.org/dc/elements/1.1/" xmlns:cc="http://creativecommons.org/ns#" xmlns:rdf="http://www.w3.org/1999/02/22-rdf-syntax-ns#">
   <cc:Work>
    <dc:type rdf:resource="http://purl.org/dc/dcmitype/StillImage"/>
    <dc:date>2024-11-25T16:34:42.510082</dc:date>
    <dc:format>image/svg+xml</dc:format>
    <dc:creator>
     <cc:Agent>
      <dc:title>Matplotlib v3.8.2, https://matplotlib.org/</dc:title>
     </cc:Agent>
    </dc:creator>
   </cc:Work>
  </rdf:RDF>
 </metadata>
 <defs>
  <style type="text/css">*{stroke-linejoin: round; stroke-linecap: butt}</style>
 </defs>
 <g id="figure_1">
  <g id="patch_1">
   <path d="M 0 288 
L 288 288 
L 288 0 
L 0 0 
z
" style="fill: #ffffff"/>
  </g>
  <g id="axes_1">
   <g id="patch_2">
    <path d="M 52.67 248.6 
L 270.72 248.6 
L 270.72 50.544 
L 52.67 50.544 
z
" style="fill: #ffffff"/>
   </g>
   <g id="PathCollection_1">
    <path d="M 252.858199 82.225528 
C 253.795834 82.225528 254.695192 81.853002 255.358199 81.189994 
C 256.021207 80.526986 256.393733 79.627628 256.393733 78.689994 
C 256.393733 77.752359 256.021207 76.853002 255.358199 76.189994 
C 254.695192 75.526986 253.795834 75.15446 252.858199 75.15446 
C 251.920565 75.15446 251.021207 75.526986 250.358199 76.189994 
C 249.695192 76.853002 249.322666 77.752359 249.322666 78.689994 
C 249.322666 79.627628 249.695192 80.526986 250.358199 81.189994 
C 251.021207 81.853002 251.920565 82.225528 252.858199 82.225528 
z
" clip-path="url(#p01a457a97b)" style="fill: #1b9e77; stroke: #ffffff; stroke-width: 0.565685"/>
    <path d="M 213.966794 184.323878 
C 214.904428 184.323878 215.803786 183.951352 216.466794 183.288344 
C 217.129801 182.625337 217.502328 181.725979 217.502328 180.788344 
C 217.502328 179.85071 217.129801 178.951352 216.466794 178.288344 
C 215.803786 177.625337 214.904428 177.252811 213.966794 177.252811 
C 213.029159 177.252811 212.129801 177.625337 211.466794 178.288344 
C 210.803786 178.951352 210.43126 179.85071 210.43126 180.788344 
C 210.43126 181.725979 210.803786 182.625337 211.466794 183.288344 
C 212.129801 183.951352 213.029159 184.323878 213.966794 184.323878 
z
" clip-path="url(#p01a457a97b)" style="fill: #1b9e77; stroke: #ffffff; stroke-width: 0.565685"/>
    <path d="M 84.657147 216.849198 
L 91.728214 216.849198 
L 91.728214 209.77813 
L 84.657147 209.77813 
z
" clip-path="url(#p01a457a97b)" style="fill: #1b9e77; stroke: #ffffff; stroke-width: 0.565685"/>
    <path d="M 191.561633 186.045816 
C 192.499268 186.045816 193.398626 185.67329 194.061633 185.010282 
C 194.724641 184.347275 195.097167 183.447917 195.097167 182.510282 
C 195.097167 181.572648 194.724641 180.67329 194.061633 180.010282 
C 193.398626 179.347275 192.499268 178.974748 191.561633 178.974748 
C 190.623999 178.974748 189.724641 179.347275 189.061633 180.010282 
C 188.398626 180.67329 188.0261 181.572648 188.0261 182.510282 
C 188.0261 183.447917 188.398626 184.347275 189.061633 185.010282 
C 189.724641 185.67329 190.623999 186.045816 191.561633 186.045816 
z
" clip-path="url(#p01a457a97b)" style="fill: #1b9e77; stroke: #ffffff; stroke-width: 0.565685"/>
    <path d="M 97.346298 207.476516 
L 104.417365 207.476516 
L 104.417365 200.405449 
L 97.346298 200.405449 
z
" clip-path="url(#p01a457a97b)" style="fill: #1b9e77; stroke: #ffffff; stroke-width: 0.565685"/>
    <path d="M 163.461463 197.991341 
L 170.532531 197.991341 
L 170.532531 190.920273 
L 163.461463 190.920273 
z
" clip-path="url(#p01a457a97b)" style="fill: #1b9e77; stroke: #ffffff; stroke-width: 0.565685"/>
    <path d="M 257.784245 80.547179 
C 258.721879 80.547179 259.621237 80.174653 260.284245 79.511645 
C 260.947253 78.848638 261.319779 77.94928 261.319779 77.011645 
C 261.319779 76.074011 260.947253 75.174653 260.284245 74.511645 
C 259.621237 73.848638 258.721879 73.476112 257.784245 73.476112 
C 256.84661 73.476112 255.947253 73.848638 255.284245 74.511645 
C 254.621237 75.174653 254.248711 76.074011 254.248711 77.011645 
C 254.248711 77.94928 254.621237 78.848638 255.284245 79.511645 
C 255.947253 80.174653 256.84661 80.547179 257.784245 80.547179 
z
" clip-path="url(#p01a457a97b)" style="fill: #1b9e77; stroke: #ffffff; stroke-width: 0.565685"/>
    <path d="M 98.544002 212.650789 
L 105.61507 212.650789 
L 105.61507 205.579721 
L 98.544002 205.579721 
z
" clip-path="url(#p01a457a97b)" style="fill: #1b9e77; stroke: #ffffff; stroke-width: 0.565685"/>
    <path d="M 255.626301 77.453897 
C 256.563936 77.453897 257.463294 77.08137 258.126301 76.418363 
C 258.789309 75.755355 259.161835 74.855997 259.161835 73.918363 
C 259.161835 72.980728 258.789309 72.08137 258.126301 71.418363 
C 257.463294 70.755355 256.563936 70.382829 255.626301 70.382829 
C 254.688667 70.382829 253.789309 70.755355 253.126301 71.418363 
C 252.463294 72.08137 252.090768 72.980728 252.090768 73.918363 
C 252.090768 74.855997 252.463294 75.755355 253.126301 76.418363 
C 253.789309 77.08137 254.688667 77.453897 255.626301 77.453897 
z
" clip-path="url(#p01a457a97b)" style="fill: #1b9e77; stroke: #ffffff; stroke-width: 0.565685"/>
    <path d="M 62.422121 240.417522 
L 69.493189 240.417522 
L 69.493189 233.346454 
L 62.422121 233.346454 
z
" clip-path="url(#p01a457a97b)" style="fill: #1b9e77; stroke: #ffffff; stroke-width: 0.565685"/>
    <path d="M 252.922401 76.053652 
C 253.860035 76.053652 254.759393 75.681126 255.422401 75.018118 
C 256.085408 74.35511 256.457935 73.455752 256.457935 72.518118 
C 256.457935 71.580483 256.085408 70.681126 255.422401 70.018118 
C 254.759393 69.35511 253.860035 68.982584 252.922401 68.982584 
C 251.984766 68.982584 251.085408 69.35511 250.422401 70.018118 
C 249.759393 70.681126 249.386867 71.580483 249.386867 72.518118 
C 249.386867 73.455752 249.759393 74.35511 250.422401 75.018118 
C 251.085408 75.681126 251.984766 76.053652 252.922401 76.053652 
z
" clip-path="url(#p01a457a97b)" style="fill: #1b9e77; stroke: #ffffff; stroke-width: 0.565685"/>
    <path d="M 260.808636 77.693972 
C 261.746271 77.693972 262.645629 77.321446 263.308636 76.658439 
C 263.971644 75.995431 264.34417 75.096073 264.34417 74.158439 
C 264.34417 73.220804 263.971644 72.321446 263.308636 71.658439 
C 262.645629 70.995431 261.746271 70.622905 260.808636 70.622905 
C 259.871002 70.622905 258.971644 70.995431 258.308636 71.658439 
C 257.645629 72.321446 257.273102 73.220804 257.273102 74.158439 
C 257.273102 75.096073 257.645629 75.995431 258.308636 76.658439 
C 258.971644 77.321446 259.871002 77.693972 260.808636 77.693972 
z
" clip-path="url(#p01a457a97b)" style="fill: #1b9e77; stroke: #ffffff; stroke-width: 0.565685"/>
    <path d="M 118.728944 200.579201 
L 125.800012 200.579201 
L 125.800012 193.508133 
L 118.728944 193.508133 
z
" clip-path="url(#p01a457a97b)" style="fill: #1b9e77; stroke: #ffffff; stroke-width: 0.565685"/>
    <path d="M 64.45774 227.770447 
L 71.528808 227.770447 
L 71.528808 220.69938 
L 64.45774 220.69938 
z
" clip-path="url(#p01a457a97b)" style="fill: #1b9e77; stroke: #ffffff; stroke-width: 0.565685"/>
    <path d="M 260.808636 80.7508 
C 261.746271 80.7508 262.645629 80.378274 263.308636 79.715266 
C 263.971644 79.052258 264.34417 78.152901 264.34417 77.215266 
C 264.34417 76.277631 263.971644 75.378274 263.308636 74.715266 
C 262.645629 74.052258 261.746271 73.679732 260.808636 73.679732 
C 259.871002 73.679732 258.971644 74.052258 258.308636 74.715266 
C 257.645629 75.378274 257.273102 76.277631 257.273102 77.215266 
C 257.273102 78.152901 257.645629 79.052258 258.308636 79.715266 
C 258.971644 80.378274 259.871002 80.7508 260.808636 80.7508 
z
" clip-path="url(#p01a457a97b)" style="fill: #1b9e77; stroke: #ffffff; stroke-width: 0.565685"/>
    <path d="M 260.808636 77.548679 
C 261.746271 77.548679 262.645629 77.176153 263.308636 76.513145 
C 263.971644 75.850138 264.34417 74.95078 264.34417 74.013145 
C 264.34417 73.075511 263.971644 72.176153 263.308636 71.513145 
C 262.645629 70.850138 261.746271 70.477611 260.808636 70.477611 
C 259.871002 70.477611 258.971644 70.850138 258.308636 71.513145 
C 257.645629 72.176153 257.273102 73.075511 257.273102 74.013145 
C 257.273102 74.95078 257.645629 75.850138 258.308636 76.513145 
C 258.971644 77.176153 259.871002 77.548679 260.808636 77.548679 
z
" clip-path="url(#p01a457a97b)" style="fill: #1b9e77; stroke: #ffffff; stroke-width: 0.565685"/>
    <path d="M 221.095953 182.717552 
C 222.033588 182.717552 222.932946 182.345026 223.595953 181.682018 
C 224.258961 181.019011 224.631487 180.119653 224.631487 179.182018 
C 224.631487 178.244384 224.258961 177.345026 223.595953 176.682018 
C 222.932946 176.019011 222.033588 175.646485 221.095953 175.646485 
C 220.158319 175.646485 219.258961 176.019011 218.595953 176.682018 
C 217.932946 177.345026 217.56042 178.244384 217.56042 179.182018 
C 217.56042 180.119653 217.932946 181.019011 218.595953 181.682018 
C 219.258961 182.345026 220.158319 182.717552 221.095953 182.717552 
z
" clip-path="url(#p01a457a97b)" style="fill: #1b9e77; stroke: #ffffff; stroke-width: 0.565685"/>
    <path d="M 260.808636 81.499431 
C 261.746271 81.499431 262.645629 81.126905 263.308636 80.463897 
C 263.971644 79.800889 264.34417 78.901532 264.34417 77.963897 
C 264.34417 77.026263 263.971644 76.126905 263.308636 75.463897 
C 262.645629 74.800889 261.746271 74.428363 260.808636 74.428363 
C 259.871002 74.428363 258.971644 74.800889 258.308636 75.463897 
C 257.645629 76.126905 257.273102 77.026263 257.273102 77.963897 
C 257.273102 78.901532 257.645629 79.800889 258.308636 80.463897 
C 258.971644 81.126905 259.871002 81.499431 260.808636 81.499431 
z
" clip-path="url(#p01a457a97b)" style="fill: #1b9e77; stroke: #ffffff; stroke-width: 0.565685"/>
    <path d="M 182.135775 184.549662 
C 183.07341 184.549662 183.972767 184.177135 184.635775 183.514128 
C 185.298783 182.85112 185.671309 181.951762 185.671309 181.014128 
C 185.671309 180.076493 185.298783 179.177135 184.635775 178.514128 
C 183.972767 177.85112 183.07341 177.478594 182.135775 177.478594 
C 181.198141 177.478594 180.298783 177.85112 179.635775 178.514128 
C 178.972767 179.177135 178.600241 180.076493 178.600241 181.014128 
C 178.600241 181.951762 178.972767 182.85112 179.635775 183.514128 
C 180.298783 184.177135 181.198141 184.549662 182.135775 184.549662 
z
" clip-path="url(#p01a457a97b)" style="fill: #1b9e77; stroke: #ffffff; stroke-width: 0.565685"/>
    <path d="M 186.075041 173.246288 
C 187.012676 173.246288 187.912033 172.873761 188.575041 172.210754 
C 189.238049 171.547746 189.610575 170.648388 189.610575 169.710754 
C 189.610575 168.773119 189.238049 167.873761 188.575041 167.210754 
C 187.912033 166.547746 187.012676 166.17522 186.075041 166.17522 
C 185.137407 166.17522 184.238049 166.547746 183.575041 167.210754 
C 182.912033 167.873761 182.539507 168.773119 182.539507 169.710754 
C 182.539507 170.648388 182.912033 171.547746 183.575041 172.210754 
C 184.238049 172.873761 185.137407 173.246288 186.075041 173.246288 
z
" clip-path="url(#p01a457a97b)" style="fill: #7570b3; stroke: #ffffff; stroke-width: 0.565685"/>
    <path d="M 260.808636 70.242071 
C 261.746271 70.242071 262.645629 69.869545 263.308636 69.206537 
C 263.971644 68.543529 264.34417 67.644171 264.34417 66.706537 
C 264.34417 65.768902 263.971644 64.869545 263.308636 64.206537 
C 262.645629 63.543529 261.746271 63.171003 260.808636 63.171003 
C 259.871002 63.171003 258.971644 63.543529 258.308636 64.206537 
C 257.645629 64.869545 257.273102 65.768902 257.273102 66.706537 
C 257.273102 67.644171 257.645629 68.543529 258.308636 69.206537 
C 258.971644 69.869545 259.871002 70.242071 260.808636 70.242071 
z
" clip-path="url(#p01a457a97b)" style="fill: #7570b3; stroke: #ffffff; stroke-width: 0.565685"/>
    <path d="M 200.096345 178.755759 
C 201.03398 178.755759 201.933337 178.383233 202.596345 177.720225 
C 203.259353 177.057218 203.631879 176.15786 203.631879 175.220225 
C 203.631879 174.282591 203.259353 173.383233 202.596345 172.720225 
C 201.933337 172.057218 201.03398 171.684692 200.096345 171.684692 
C 199.158711 171.684692 198.259353 172.057218 197.596345 172.720225 
C 196.933337 173.383233 196.560811 174.282591 196.560811 175.220225 
C 196.560811 176.15786 196.933337 177.057218 197.596345 177.720225 
C 198.259353 178.383233 199.158711 178.755759 200.096345 178.755759 
z
" clip-path="url(#p01a457a97b)" style="fill: #7570b3; stroke: #ffffff; stroke-width: 0.565685"/>
    <path d="M 252.616884 70.353047 
C 253.554518 70.353047 254.453876 69.980521 255.116884 69.317513 
C 255.779891 68.654505 256.152418 67.755148 256.152418 66.817513 
C 256.152418 65.879879 255.779891 64.980521 255.116884 64.317513 
C 254.453876 63.654505 253.554518 63.281979 252.616884 63.281979 
C 251.679249 63.281979 250.779891 63.654505 250.116884 64.317513 
C 249.453876 64.980521 249.08135 65.879879 249.08135 66.817513 
C 249.08135 67.755148 249.453876 68.654505 250.116884 69.317513 
C 250.779891 69.980521 251.679249 70.353047 252.616884 70.353047 
z
" clip-path="url(#p01a457a97b)" style="fill: #7570b3; stroke: #ffffff; stroke-width: 0.565685"/>
    <path d="M 259.455213 68.862758 
C 260.392848 68.862758 261.292205 68.490232 261.955213 67.827224 
C 262.618221 67.164216 262.990747 66.264859 262.990747 65.327224 
C 262.990747 64.38959 262.618221 63.490232 261.955213 62.827224 
C 261.292205 62.164216 260.392848 61.79169 259.455213 61.79169 
C 258.517579 61.79169 257.618221 62.164216 256.955213 62.827224 
C 256.292205 63.490232 255.919679 64.38959 255.919679 65.327224 
C 255.919679 66.264859 256.292205 67.164216 256.955213 67.827224 
C 257.618221 68.490232 258.517579 68.862758 259.455213 68.862758 
z
" clip-path="url(#p01a457a97b)" style="fill: #7570b3; stroke: #ffffff; stroke-width: 0.565685"/>
    <path d="M 257.537843 72.103941 
C 258.475477 72.103941 259.374835 71.731415 260.037843 71.068407 
C 260.70085 70.405399 261.073377 69.506042 261.073377 68.568407 
C 261.073377 67.630773 260.70085 66.731415 260.037843 66.068407 
C 259.374835 65.405399 258.475477 65.032873 257.537843 65.032873 
C 256.600208 65.032873 255.70085 65.405399 255.037843 66.068407 
C 254.374835 66.731415 254.002309 67.630773 254.002309 68.568407 
C 254.002309 69.506042 254.374835 70.405399 255.037843 71.068407 
C 255.70085 71.731415 256.600208 72.103941 257.537843 72.103941 
z
" clip-path="url(#p01a457a97b)" style="fill: #7570b3; stroke: #ffffff; stroke-width: 0.565685"/>
    <path d="M 121.699743 192.382264 
L 128.77081 192.382264 
L 128.77081 185.311196 
L 121.699743 185.311196 
z
" clip-path="url(#p01a457a97b)" style="fill: #7570b3; stroke: #ffffff; stroke-width: 0.565685"/>
    <path d="M 258.624365 70.096928 
C 259.562 70.096928 260.461357 69.724402 261.124365 69.061394 
C 261.787373 68.398387 262.159899 67.499029 262.159899 66.561394 
C 262.159899 65.62376 261.787373 64.724402 261.124365 64.061394 
C 260.461357 63.398387 259.562 63.02586 258.624365 63.02586 
C 257.686731 63.02586 256.787373 63.398387 256.124365 64.061394 
C 255.461357 64.724402 255.088831 65.62376 255.088831 66.561394 
C 255.088831 67.499029 255.461357 68.398387 256.124365 69.061394 
C 256.787373 69.724402 257.686731 70.096928 258.624365 70.096928 
z
" clip-path="url(#p01a457a97b)" style="fill: #7570b3; stroke: #ffffff; stroke-width: 0.565685"/>
    <path d="M 259.144301 65.616641 
C 260.081935 65.616641 260.981293 65.244115 261.644301 64.581108 
C 262.307309 63.9181 262.679835 63.018742 262.679835 62.081108 
C 262.679835 61.143473 262.307309 60.244115 261.644301 59.581108 
C 260.981293 58.9181 260.081935 58.545574 259.144301 58.545574 
C 258.206666 58.545574 257.307309 58.9181 256.644301 59.581108 
C 255.981293 60.244115 255.608767 61.143473 255.608767 62.081108 
C 255.608767 63.018742 255.981293 63.9181 256.644301 64.581108 
C 257.307309 65.244115 258.206666 65.616641 259.144301 65.616641 
z
" clip-path="url(#p01a457a97b)" style="fill: #7570b3; stroke: #ffffff; stroke-width: 0.565685"/>
    <path d="M 258.223866 69.167147 
C 259.1615 69.167147 260.060858 68.794621 260.723866 68.131613 
C 261.386873 67.468605 261.7594 66.569247 261.7594 65.631613 
C 261.7594 64.693978 261.386873 63.794621 260.723866 63.131613 
C 260.060858 62.468605 259.1615 62.096079 258.223866 62.096079 
C 257.286231 62.096079 256.386873 62.468605 255.723866 63.131613 
C 255.060858 63.794621 254.688332 64.693978 254.688332 65.631613 
C 254.688332 66.569247 255.060858 67.468605 255.723866 68.131613 
C 256.386873 68.794621 257.286231 69.167147 258.223866 69.167147 
z
" clip-path="url(#p01a457a97b)" style="fill: #7570b3; stroke: #ffffff; stroke-width: 0.565685"/>
    <path d="M 253.681877 73.39721 
C 254.619511 73.39721 255.518869 73.024683 256.181877 72.361676 
C 256.844884 71.698668 257.217411 70.79931 257.217411 69.861676 
C 257.217411 68.924041 256.844884 68.024683 256.181877 67.361676 
C 255.518869 66.698668 254.619511 66.326142 253.681877 66.326142 
C 252.744242 66.326142 251.844884 66.698668 251.181877 67.361676 
C 250.518869 68.024683 250.146343 68.924041 250.146343 69.861676 
C 250.146343 70.79931 250.518869 71.698668 251.181877 72.361676 
C 251.844884 73.024683 252.744242 73.39721 253.681877 73.39721 
z
" clip-path="url(#p01a457a97b)" style="fill: #7570b3; stroke: #ffffff; stroke-width: 0.565685"/>
    <path d="M 260.808636 69.267607 
C 261.746271 69.267607 262.645629 68.895081 263.308636 68.232073 
C 263.971644 67.569066 264.34417 66.669708 264.34417 65.732073 
C 264.34417 64.794439 263.971644 63.895081 263.308636 63.232073 
C 262.645629 62.569066 261.746271 62.19654 260.808636 62.19654 
C 259.871002 62.19654 258.971644 62.569066 258.308636 63.232073 
C 257.645629 63.895081 257.273102 64.794439 257.273102 65.732073 
C 257.273102 66.669708 257.645629 67.569066 258.308636 68.232073 
C 258.971644 68.895081 259.871002 69.267607 260.808636 69.267607 
z
" clip-path="url(#p01a457a97b)" style="fill: #7570b3; stroke: #ffffff; stroke-width: 0.565685"/>
    <path d="M 257.860907 67.222387 
C 258.798541 67.222387 259.697899 66.849861 260.360907 66.186853 
C 261.023914 65.523845 261.396441 64.624488 261.396441 63.686853 
C 261.396441 62.749219 261.023914 61.849861 260.360907 61.186853 
C 259.697899 60.523845 258.798541 60.151319 257.860907 60.151319 
C 256.923272 60.151319 256.023914 60.523845 255.360907 61.186853 
C 254.697899 61.849861 254.325373 62.749219 254.325373 63.686853 
C 254.325373 64.624488 254.697899 65.523845 255.360907 66.186853 
C 256.023914 66.849861 256.923272 67.222387 257.860907 67.222387 
z
" clip-path="url(#p01a457a97b)" style="fill: #7570b3; stroke: #ffffff; stroke-width: 0.565685"/>
    <path d="M 251.192448 72.223311 
C 252.130083 72.223311 253.02944 71.850784 253.692448 71.187777 
C 254.355456 70.524769 254.727982 69.625411 254.727982 68.687777 
C 254.727982 67.750142 254.355456 66.850784 253.692448 66.187777 
C 253.02944 65.524769 252.130083 65.152243 251.192448 65.152243 
C 250.254814 65.152243 249.355456 65.524769 248.692448 66.187777 
C 248.02944 66.850784 247.656914 67.750142 247.656914 68.687777 
C 247.656914 69.625411 248.02944 70.524769 248.692448 71.187777 
C 249.355456 71.850784 250.254814 72.223311 251.192448 72.223311 
z
" clip-path="url(#p01a457a97b)" style="fill: #7570b3; stroke: #ffffff; stroke-width: 0.565685"/>
    <path d="M 254.40014 68.736402 
C 255.337774 68.736402 256.237132 68.363876 256.90014 67.700868 
C 257.563147 67.03786 257.935673 66.138502 257.935673 65.200868 
C 257.935673 64.263233 257.563147 63.363876 256.90014 62.700868 
C 256.237132 62.03786 255.337774 61.665334 254.40014 61.665334 
C 253.462505 61.665334 252.563147 62.03786 251.90014 62.700868 
C 251.237132 63.363876 250.864606 64.263233 250.864606 65.200868 
C 250.864606 66.138502 251.237132 67.03786 251.90014 67.700868 
C 252.563147 68.363876 253.462505 68.736402 254.40014 68.736402 
z
" clip-path="url(#p01a457a97b)" style="fill: #7570b3; stroke: #ffffff; stroke-width: 0.565685"/>
    <path d="M 260.808636 71.802359 
C 261.746271 71.802359 262.645629 71.429833 263.308636 70.766825 
C 263.971644 70.103817 264.34417 69.20446 264.34417 68.266825 
C 264.34417 67.32919 263.971644 66.429833 263.308636 65.766825 
C 262.645629 65.103817 261.746271 64.731291 260.808636 64.731291 
C 259.871002 64.731291 258.971644 65.103817 258.308636 65.766825 
C 257.645629 66.429833 257.273102 67.32919 257.273102 68.266825 
C 257.273102 69.20446 257.645629 70.103817 258.308636 70.766825 
C 258.971644 71.429833 259.871002 71.802359 260.808636 71.802359 
z
" clip-path="url(#p01a457a97b)" style="fill: #7570b3; stroke: #ffffff; stroke-width: 0.565685"/>
    <path d="M 258.798444 70.403319 
C 259.736079 70.403319 260.635436 70.030793 261.298444 69.367785 
C 261.961452 68.704777 262.333978 67.80542 262.333978 66.867785 
C 262.333978 65.930151 261.961452 65.030793 261.298444 64.367785 
C 260.635436 63.704777 259.736079 63.332251 258.798444 63.332251 
C 257.86081 63.332251 256.961452 63.704777 256.298444 64.367785 
C 255.635436 65.030793 255.26291 65.930151 255.26291 66.867785 
C 255.26291 67.80542 255.635436 68.704777 256.298444 69.367785 
C 256.961452 70.030793 257.86081 70.403319 258.798444 70.403319 
z
" clip-path="url(#p01a457a97b)" style="fill: #7570b3; stroke: #ffffff; stroke-width: 0.565685"/>
    <path d="M 91.432069 199.023906 
L 98.503137 199.023906 
L 98.503137 191.952838 
L 91.432069 191.952838 
z
" clip-path="url(#p01a457a97b)" style="fill: #7570b3; stroke: #ffffff; stroke-width: 0.565685"/>
    <path d="M 162.178842 178.487442 
C 163.116477 178.487442 164.015835 178.114916 164.678842 177.451908 
C 165.34185 176.788901 165.714376 175.889543 165.714376 174.951908 
C 165.714376 174.014274 165.34185 173.114916 164.678842 172.451908 
C 164.015835 171.788901 163.116477 171.416375 162.178842 171.416375 
C 161.241208 171.416375 160.34185 171.788901 159.678842 172.451908 
C 159.015835 173.114916 158.643309 174.014274 158.643309 174.951908 
C 158.643309 175.889543 159.015835 176.788901 159.678842 177.451908 
C 160.34185 178.114916 161.241208 178.487442 162.178842 178.487442 
z
" clip-path="url(#p01a457a97b)" style="fill: #7570b3; stroke: #ffffff; stroke-width: 0.565685"/>
    <path d="M 140.388993 187.701565 
C 141.326627 187.701565 142.225985 187.329039 142.888993 186.666032 
C 143.552 186.003024 143.924527 185.103666 143.924527 184.166032 
C 143.924527 183.228397 143.552 182.329039 142.888993 181.666032 
C 142.225985 181.003024 141.326627 180.630498 140.388993 180.630498 
C 139.451358 180.630498 138.552 181.003024 137.888993 181.666032 
C 137.225985 182.329039 136.853459 183.228397 136.853459 184.166032 
C 136.853459 185.103666 137.225985 186.003024 137.888993 186.666032 
C 138.552 187.329039 139.451358 187.701565 140.388993 187.701565 
z
" clip-path="url(#p01a457a97b)" style="fill: #7570b3; stroke: #ffffff; stroke-width: 0.565685"/>
    <path d="M 260.808636 69.906907 
C 261.746271 69.906907 262.645629 69.534381 263.308636 68.871373 
C 263.971644 68.208366 264.34417 67.309008 264.34417 66.371373 
C 264.34417 65.433739 263.971644 64.534381 263.308636 63.871373 
C 262.645629 63.208366 261.746271 62.83584 260.808636 62.83584 
C 259.871002 62.83584 258.971644 63.208366 258.308636 63.871373 
C 257.645629 64.534381 257.273102 65.433739 257.273102 66.371373 
C 257.273102 67.309008 257.645629 68.208366 258.308636 68.871373 
C 258.971644 69.534381 259.871002 69.906907 260.808636 69.906907 
z
" clip-path="url(#p01a457a97b)" style="fill: #7570b3; stroke: #ffffff; stroke-width: 0.565685"/>
    <path d="M 257.424673 76.795312 
C 258.362307 76.795312 259.261665 76.422786 259.924673 75.759779 
C 260.58768 75.096771 260.960207 74.197413 260.960207 73.259779 
C 260.960207 72.322144 260.58768 71.422786 259.924673 70.759779 
C 259.261665 70.096771 258.362307 69.724245 257.424673 69.724245 
C 256.487038 69.724245 255.58768 70.096771 254.924673 70.759779 
C 254.261665 71.422786 253.889139 72.322144 253.889139 73.259779 
C 253.889139 74.197413 254.261665 75.096771 254.924673 75.759779 
C 255.58768 76.422786 256.487038 76.795312 257.424673 76.795312 
z
" clip-path="url(#p01a457a97b)" style="fill: #d95f02; stroke: #ffffff; stroke-width: 0.565685"/>
    <path d="M 63.712178 238.134862 
L 70.783245 238.134862 
L 70.783245 231.063794 
L 63.712178 231.063794 
z
" clip-path="url(#p01a457a97b)" style="fill: #d95f02; stroke: #ffffff; stroke-width: 0.565685"/>
    <path d="M 71.720753 222.244119 
L 78.79182 222.244119 
L 78.79182 215.173051 
L 71.720753 215.173051 
z
" clip-path="url(#p01a457a97b)" style="fill: #d95f02; stroke: #ffffff; stroke-width: 0.565685"/>
    <path d="M 257.563463 84.727128 
C 258.501097 84.727128 259.400455 84.354601 260.063463 83.691594 
C 260.72647 83.028586 261.098997 82.129228 261.098997 81.191594 
C 261.098997 80.253959 260.72647 79.354601 260.063463 78.691594 
C 259.400455 78.028586 258.501097 77.65606 257.563463 77.65606 
C 256.625828 77.65606 255.72647 78.028586 255.063463 78.691594 
C 254.400455 79.354601 254.027929 80.253959 254.027929 81.191594 
C 254.027929 82.129228 254.400455 83.028586 255.063463 83.691594 
C 255.72647 84.354601 256.625828 84.727128 257.563463 84.727128 
z
" clip-path="url(#p01a457a97b)" style="fill: #d95f02; stroke: #ffffff; stroke-width: 0.565685"/>
    <path d="M 65.606666 238.030087 
L 72.677734 238.030087 
L 72.677734 230.959019 
L 65.606666 230.959019 
z
" clip-path="url(#p01a457a97b)" style="fill: #d95f02; stroke: #ffffff; stroke-width: 0.565685"/>
    <path d="M 260.808636 79.844823 
C 261.746271 79.844823 262.645629 79.472297 263.308636 78.809289 
C 263.971644 78.146282 264.34417 77.246924 264.34417 76.309289 
C 264.34417 75.371655 263.971644 74.472297 263.308636 73.809289 
C 262.645629 73.146282 261.746271 72.773755 260.808636 72.773755 
C 259.871002 72.773755 258.971644 73.146282 258.308636 73.809289 
C 257.645629 74.472297 257.273102 75.371655 257.273102 76.309289 
C 257.273102 77.246924 257.645629 78.146282 258.308636 78.809289 
C 258.971644 79.472297 259.871002 79.844823 260.808636 79.844823 
z
" clip-path="url(#p01a457a97b)" style="fill: #d95f02; stroke: #ffffff; stroke-width: 0.565685"/>
    <path d="M 260.808636 82.171981 
C 261.746271 82.171981 262.645629 81.799455 263.308636 81.136447 
C 263.971644 80.47344 264.34417 79.574082 264.34417 78.636447 
C 264.34417 77.698813 263.971644 76.799455 263.308636 76.136447 
C 262.645629 75.47344 261.746271 75.100914 260.808636 75.100914 
C 259.871002 75.100914 258.971644 75.47344 258.308636 76.136447 
C 257.645629 76.799455 257.273102 77.698813 257.273102 78.636447 
C 257.273102 79.574082 257.645629 80.47344 258.308636 81.136447 
C 258.971644 81.799455 259.871002 82.171981 260.808636 82.171981 
z
" clip-path="url(#p01a457a97b)" style="fill: #d95f02; stroke: #ffffff; stroke-width: 0.565685"/>
    <path d="M 59.433764 225.089671 
L 66.504832 225.089671 
L 66.504832 218.018603 
L 59.433764 218.018603 
z
" clip-path="url(#p01a457a97b)" style="fill: #d95f02; stroke: #ffffff; stroke-width: 0.565685"/>
    <path d="M 200.356359 170.54675 
C 201.293994 170.54675 202.193352 170.174224 202.856359 169.511216 
C 203.519367 168.848208 203.891893 167.94885 203.891893 167.011216 
C 203.891893 166.073581 203.519367 165.174224 202.856359 164.511216 
C 202.193352 163.848208 201.293994 163.475682 200.356359 163.475682 
C 199.418725 163.475682 198.519367 163.848208 197.856359 164.511216 
C 197.193352 165.174224 196.820826 166.073581 196.820826 167.011216 
C 196.820826 167.94885 197.193352 168.848208 197.856359 169.511216 
C 198.519367 170.174224 199.418725 170.54675 200.356359 170.54675 
z
" clip-path="url(#p01a457a97b)" style="fill: #d95f02; stroke: #ffffff; stroke-width: 0.565685"/>
    <path d="M 260.808636 77.962644 
C 261.746271 77.962644 262.645629 77.590118 263.308636 76.92711 
C 263.971644 76.264102 264.34417 75.364745 264.34417 74.42711 
C 264.34417 73.489476 263.971644 72.590118 263.308636 71.92711 
C 262.645629 71.264102 261.746271 70.891576 260.808636 70.891576 
C 259.871002 70.891576 258.971644 71.264102 258.308636 71.92711 
C 257.645629 72.590118 257.273102 73.489476 257.273102 74.42711 
C 257.273102 75.364745 257.645629 76.264102 258.308636 76.92711 
C 258.971644 77.590118 259.871002 77.962644 260.808636 77.962644 
z
" clip-path="url(#p01a457a97b)" style="fill: #d95f02; stroke: #ffffff; stroke-width: 0.565685"/>
    <path d="M 146.368809 178.931186 
C 147.306444 178.931186 148.205802 178.55866 148.868809 177.895652 
C 149.531817 177.232644 149.904343 176.333287 149.904343 175.395652 
C 149.904343 174.458018 149.531817 173.55866 148.868809 172.895652 
C 148.205802 172.232644 147.306444 171.860118 146.368809 171.860118 
C 145.431175 171.860118 144.531817 172.232644 143.868809 172.895652 
C 143.205802 173.55866 142.833275 174.458018 142.833275 175.395652 
C 142.833275 176.333287 143.205802 177.232644 143.868809 177.895652 
C 144.531817 178.55866 145.431175 178.931186 146.368809 178.931186 
z
" clip-path="url(#p01a457a97b)" style="fill: #d95f02; stroke: #ffffff; stroke-width: 0.565685"/>
    <path d="M 188.224149 168.247291 
C 189.161784 168.247291 190.061141 167.874765 190.724149 167.211757 
C 191.387157 166.548749 191.759683 165.649391 191.759683 164.711757 
C 191.759683 163.774122 191.387157 162.874765 190.724149 162.211757 
C 190.061141 161.548749 189.161784 161.176223 188.224149 161.176223 
C 187.286515 161.176223 186.387157 161.548749 185.724149 162.211757 
C 185.061141 162.874765 184.688615 163.774122 184.688615 164.711757 
C 184.688615 165.649391 185.061141 166.548749 185.724149 167.211757 
C 186.387157 167.874765 187.286515 168.247291 188.224149 168.247291 
z
" clip-path="url(#p01a457a97b)" style="fill: #d95f02; stroke: #ffffff; stroke-width: 0.565685"/>
    <path d="M 75.86748 219.736187 
L 82.938548 219.736187 
L 82.938548 212.665119 
L 75.86748 212.665119 
z
" clip-path="url(#p01a457a97b)" style="fill: #d95f02; stroke: #ffffff; stroke-width: 0.565685"/>
    <path d="M 251.060612 81.446633 
C 251.998246 81.446633 252.897604 81.074107 253.560612 80.411099 
C 254.223619 79.748091 254.596146 78.848734 254.596146 77.911099 
C 254.596146 76.973464 254.223619 76.074107 253.560612 75.411099 
C 252.897604 74.748091 251.998246 74.375565 251.060612 74.375565 
C 250.122977 74.375565 249.223619 74.748091 248.560612 75.411099 
C 247.897604 76.074107 247.525078 76.973464 247.525078 77.911099 
C 247.525078 78.848734 247.897604 79.748091 248.560612 80.411099 
C 249.223619 81.074107 250.122977 81.446633 251.060612 81.446633 
z
" clip-path="url(#p01a457a97b)" style="fill: #d95f02; stroke: #ffffff; stroke-width: 0.565685"/>
    <path d="M 72.816547 218.946936 
L 79.887614 218.946936 
L 79.887614 211.875868 
L 72.816547 211.875868 
z
" clip-path="url(#p01a457a97b)" style="fill: #d95f02; stroke: #ffffff; stroke-width: 0.565685"/>
    <path d="M 115.657654 189.206576 
C 116.595288 189.206576 117.494646 188.83405 118.157654 188.171042 
C 118.820662 187.508035 119.193188 186.608677 119.193188 185.671042 
C 119.193188 184.733408 118.820662 183.83405 118.157654 183.171042 
C 117.494646 182.508035 116.595288 182.135508 115.657654 182.135508 
C 114.720019 182.135508 113.820662 182.508035 113.157654 183.171042 
C 112.494646 183.83405 112.12212 184.733408 112.12212 185.671042 
C 112.12212 186.608677 112.494646 187.508035 113.157654 188.171042 
C 113.820662 188.83405 114.720019 189.206576 115.657654 189.206576 
z
" clip-path="url(#p01a457a97b)" style="fill: #d95f02; stroke: #ffffff; stroke-width: 0.565685"/>
    <path d="M 96.909812 193.778578 
L 103.98088 193.778578 
L 103.98088 186.70751 
L 96.909812 186.70751 
z
" clip-path="url(#p01a457a97b)" style="fill: #d95f02; stroke: #ffffff; stroke-width: 0.565685"/>
    <path d="M 260.756773 77.283139 
C 261.694408 77.283139 262.593765 76.910613 263.256773 76.247605 
C 263.919781 75.584598 264.292307 74.68524 264.292307 73.747605 
C 264.292307 72.809971 263.919781 71.910613 263.256773 71.247605 
C 262.593765 70.584598 261.694408 70.212071 260.756773 70.212071 
C 259.819139 70.212071 258.919781 70.584598 258.256773 71.247605 
C 257.593765 71.910613 257.221239 72.809971 257.221239 73.747605 
C 257.221239 74.68524 257.593765 75.584598 258.256773 76.247605 
C 258.919781 76.910613 259.819139 77.283139 260.756773 77.283139 
z
" clip-path="url(#p01a457a97b)" style="fill: #d95f02; stroke: #ffffff; stroke-width: 0.565685"/>
    <path d="M 171.790501 170.783289 
C 172.728135 170.783289 173.627493 170.410763 174.290501 169.747755 
C 174.953508 169.084747 175.326035 168.18539 175.326035 167.247755 
C 175.326035 166.310121 174.953508 165.410763 174.290501 164.747755 
C 173.627493 164.084747 172.728135 163.712221 171.790501 163.712221 
C 170.852866 163.712221 169.953508 164.084747 169.290501 164.747755 
C 168.627493 165.410763 168.254967 166.310121 168.254967 167.247755 
C 168.254967 168.18539 168.627493 169.084747 169.290501 169.747755 
C 169.953508 170.410763 170.852866 170.783289 171.790501 170.783289 
z
" clip-path="url(#p01a457a97b)" style="fill: #d95f02; stroke: #ffffff; stroke-width: 0.565685"/>
    <path d="M 171.272238 166.494106 
C 172.209873 166.494106 173.109231 166.12158 173.772238 165.458572 
C 174.435246 164.795564 174.807772 163.896207 174.807772 162.958572 
C 174.807772 162.020937 174.435246 161.12158 173.772238 160.458572 
C 173.109231 159.795564 172.209873 159.423038 171.272238 159.423038 
C 170.334604 159.423038 169.435246 159.795564 168.772238 160.458572 
C 168.109231 161.12158 167.736705 162.020937 167.736705 162.958572 
C 167.736705 163.896207 168.109231 164.795564 168.772238 165.458572 
C 169.435246 166.12158 170.334604 166.494106 171.272238 166.494106 
z
" clip-path="url(#p01a457a97b)" style="fill: #d95f02; stroke: #ffffff; stroke-width: 0.565685"/>
    <path d="M 94.354353 196.816423 
L 101.425421 196.816423 
L 101.425421 189.745355 
L 94.354353 189.745355 
z
" clip-path="url(#p01a457a97b)" style="fill: #d95f02; stroke: #ffffff; stroke-width: 0.565685"/>
    <path d="M 144.693088 176.635544 
C 145.630723 176.635544 146.53008 176.263018 147.193088 175.60001 
C 147.856096 174.937002 148.228622 174.037645 148.228622 173.10001 
C 148.228622 172.162376 147.856096 171.263018 147.193088 170.60001 
C 146.53008 169.937002 145.630723 169.564476 144.693088 169.564476 
C 143.755454 169.564476 142.856096 169.937002 142.193088 170.60001 
C 141.53008 171.263018 141.157554 172.162376 141.157554 173.10001 
C 141.157554 174.037645 141.53008 174.937002 142.193088 175.60001 
C 142.856096 176.263018 143.755454 176.635544 144.693088 176.635544 
z
" clip-path="url(#p01a457a97b)" style="fill: #d95f02; stroke: #ffffff; stroke-width: 0.565685"/>
    <path d="M 254.178185 82.42162 
C 255.115819 82.42162 256.015177 82.049094 256.678185 81.386086 
C 257.341193 80.723079 257.713719 79.823721 257.713719 78.886086 
C 257.713719 77.948452 257.341193 77.049094 256.678185 76.386086 
C 256.015177 75.723079 255.115819 75.350552 254.178185 75.350552 
C 253.24055 75.350552 252.341193 75.723079 251.678185 76.386086 
C 251.015177 77.049094 250.642651 77.948452 250.642651 78.886086 
C 250.642651 79.823721 251.015177 80.723079 251.678185 81.386086 
C 252.341193 82.049094 253.24055 82.42162 254.178185 82.42162 
z
" clip-path="url(#p01a457a97b)" style="fill: #d95f02; stroke: #ffffff; stroke-width: 0.565685"/>
    <path d="M 260.808636 79.382088 
C 261.746271 79.382088 262.645629 79.009562 263.308636 78.346555 
C 263.971644 77.683547 264.34417 76.784189 264.34417 75.846555 
C 264.34417 74.90892 263.971644 74.009562 263.308636 73.346555 
C 262.645629 72.683547 261.746271 72.311021 260.808636 72.311021 
C 259.871002 72.311021 258.971644 72.683547 258.308636 73.346555 
C 257.645629 74.009562 257.273102 74.90892 257.273102 75.846555 
C 257.273102 76.784189 257.645629 77.683547 258.308636 78.346555 
C 258.971644 79.009562 259.871002 79.382088 260.808636 79.382088 
z
" clip-path="url(#p01a457a97b)" style="fill: #d95f02; stroke: #ffffff; stroke-width: 0.565685"/>
    <path d="M 145.302005 181.792864 
C 146.23964 181.792864 147.138997 181.420337 147.802005 180.75733 
C 148.465013 180.094322 148.837539 179.194964 148.837539 178.25733 
C 148.837539 177.319695 148.465013 176.420337 147.802005 175.75733 
C 147.138997 175.094322 146.23964 174.721796 145.302005 174.721796 
C 144.364371 174.721796 143.465013 175.094322 142.802005 175.75733 
C 142.138997 176.420337 141.766471 177.319695 141.766471 178.25733 
C 141.766471 179.194964 142.138997 180.094322 142.802005 180.75733 
C 143.465013 181.420337 144.364371 181.792864 145.302005 181.792864 
z
" clip-path="url(#p01a457a97b)" style="fill: #d95f02; stroke: #ffffff; stroke-width: 0.565685"/>
    <path d="M 255.802205 77.938775 
C 256.739839 77.938775 257.639197 77.566249 258.302205 76.903241 
C 258.965213 76.240234 259.337739 75.340876 259.337739 74.403241 
C 259.337739 73.465607 258.965213 72.566249 258.302205 71.903241 
C 257.639197 71.240234 256.739839 70.867708 255.802205 70.867708 
C 254.86457 70.867708 253.965213 71.240234 253.302205 71.903241 
C 252.639197 72.566249 252.266671 73.465607 252.266671 74.403241 
C 252.266671 75.340876 252.639197 76.240234 253.302205 76.903241 
C 253.965213 77.566249 254.86457 77.938775 255.802205 77.938775 
z
" clip-path="url(#p01a457a97b)" style="fill: #d95f02; stroke: #ffffff; stroke-width: 0.565685"/>
    <path d="M 134.593414 182.359914 
C 135.531048 182.359914 136.430406 181.987388 137.093414 181.32438 
C 137.756421 180.661372 138.128948 179.762014 138.128948 178.82438 
C 138.128948 177.886745 137.756421 176.987388 137.093414 176.32438 
C 136.430406 175.661372 135.531048 175.288846 134.593414 175.288846 
C 133.655779 175.288846 132.756421 175.661372 132.093414 176.32438 
C 131.430406 176.987388 131.05788 177.886745 131.05788 178.82438 
C 131.05788 179.762014 131.430406 180.661372 132.093414 181.32438 
C 132.756421 181.987388 133.655779 182.359914 134.593414 182.359914 
z
" clip-path="url(#p01a457a97b)" style="fill: #d95f02; stroke: #ffffff; stroke-width: 0.565685"/>
    <path d="M 252.354971 78.686569 
C 253.292605 78.686569 254.191963 78.314043 254.854971 77.651035 
C 255.517978 76.988027 255.890505 76.08867 255.890505 75.151035 
C 255.890505 74.213401 255.517978 73.314043 254.854971 72.651035 
C 254.191963 71.988027 253.292605 71.615501 252.354971 71.615501 
C 251.417336 71.615501 250.517978 71.988027 249.854971 72.651035 
C 249.191963 73.314043 248.819437 74.213401 248.819437 75.151035 
C 248.819437 76.08867 249.191963 76.988027 249.854971 77.651035 
C 250.517978 78.314043 251.417336 78.686569 252.354971 78.686569 
z
" clip-path="url(#p01a457a97b)" style="fill: #d95f02; stroke: #ffffff; stroke-width: 0.565685"/>
    <path d="M 78.484643 209.14168 
L 85.555711 209.14168 
L 85.555711 202.070612 
L 78.484643 202.070612 
z
" clip-path="url(#p01a457a97b)" style="fill: #d95f02; stroke: #ffffff; stroke-width: 0.565685"/>
    <path d="M 253.367383 79.526952 
C 254.305017 79.526952 255.204375 79.154426 255.867383 78.491419 
C 256.530391 77.828411 256.902917 76.929053 256.902917 75.991419 
C 256.902917 75.053784 256.530391 74.154426 255.867383 73.491419 
C 255.204375 72.828411 254.305017 72.455885 253.367383 72.455885 
C 252.429748 72.455885 251.530391 72.828411 250.867383 73.491419 
C 250.204375 74.154426 249.831849 75.053784 249.831849 75.991419 
C 249.831849 76.929053 250.204375 77.828411 250.867383 78.491419 
C 251.530391 79.154426 252.429748 79.526952 253.367383 79.526952 
z
" clip-path="url(#p01a457a97b)" style="fill: #d95f02; stroke: #ffffff; stroke-width: 0.565685"/>
    <path d="M 260.808636 79.838588 
C 261.746271 79.838588 262.645629 79.466062 263.308636 78.803054 
C 263.971644 78.140046 264.34417 77.240689 264.34417 76.303054 
C 264.34417 75.36542 263.971644 74.466062 263.308636 73.803054 
C 262.645629 73.140046 261.746271 72.76752 260.808636 72.76752 
C 259.871002 72.76752 258.971644 73.140046 258.308636 73.803054 
C 257.645629 74.466062 257.273102 75.36542 257.273102 76.303054 
C 257.273102 77.240689 257.645629 78.140046 258.308636 78.803054 
C 258.971644 79.466062 259.871002 79.838588 260.808636 79.838588 
z
" clip-path="url(#p01a457a97b)" style="fill: #d95f02; stroke: #ffffff; stroke-width: 0.565685"/>
    <path d="M 71.538128 220.149069 
L 78.609196 220.149069 
L 78.609196 213.078001 
L 71.538128 213.078001 
z
" clip-path="url(#p01a457a97b)" style="fill: #d95f02; stroke: #ffffff; stroke-width: 0.565685"/>
    <path d="M 260.808636 85.338409 
C 261.746271 85.338409 262.645629 84.965883 263.308636 84.302875 
C 263.971644 83.639867 264.34417 82.74051 264.34417 81.802875 
C 264.34417 80.865241 263.971644 79.965883 263.308636 79.302875 
C 262.645629 78.639867 261.746271 78.267341 260.808636 78.267341 
C 259.871002 78.267341 258.971644 78.639867 258.308636 79.302875 
C 257.645629 79.965883 257.273102 80.865241 257.273102 81.802875 
C 257.273102 82.74051 257.645629 83.639867 258.308636 84.302875 
C 258.971644 84.965883 259.871002 85.338409 260.808636 85.338409 
z
" clip-path="url(#p01a457a97b)" style="fill: #d95f02; stroke: #ffffff; stroke-width: 0.565685"/>
    <path d="M 141.656375 178.665168 
C 142.594009 178.665168 143.493367 178.292642 144.156375 177.629634 
C 144.819382 176.966626 145.191908 176.067269 145.191908 175.129634 
C 145.191908 174.191999 144.819382 173.292642 144.156375 172.629634 
C 143.493367 171.966626 142.594009 171.5941 141.656375 171.5941 
C 140.71874 171.5941 139.819382 171.966626 139.156375 172.629634 
C 138.493367 173.292642 138.120841 174.191999 138.120841 175.129634 
C 138.120841 176.067269 138.493367 176.966626 139.156375 177.629634 
C 139.819382 178.292642 140.71874 178.665168 141.656375 178.665168 
z
" clip-path="url(#p01a457a97b)" style="fill: #d95f02; stroke: #ffffff; stroke-width: 0.565685"/>
    <path d="M 257.234752 83.970087 
C 258.172386 83.970087 259.071744 83.59756 259.734752 82.934553 
C 260.397759 82.271545 260.770286 81.372187 260.770286 80.434553 
C 260.770286 79.496918 260.397759 78.59756 259.734752 77.934553 
C 259.071744 77.271545 258.172386 76.899019 257.234752 76.899019 
C 256.297117 76.899019 255.397759 77.271545 254.734752 77.934553 
C 254.071744 78.59756 253.699218 79.496918 253.699218 80.434553 
C 253.699218 81.372187 254.071744 82.271545 254.734752 82.934553 
C 255.397759 83.59756 256.297117 83.970087 257.234752 83.970087 
z
" clip-path="url(#p01a457a97b)" style="fill: #d95f02; stroke: #ffffff; stroke-width: 0.565685"/>
    <path d="M 137.87848 177.950711 
C 138.816114 177.950711 139.715472 177.578184 140.37848 176.915177 
C 141.041487 176.252169 141.414014 175.352811 141.414014 174.415177 
C 141.414014 173.477542 141.041487 172.578184 140.37848 171.915177 
C 139.715472 171.252169 138.816114 170.879643 137.87848 170.879643 
C 136.940845 170.879643 136.041487 171.252169 135.37848 171.915177 
C 134.715472 172.578184 134.342946 173.477542 134.342946 174.415177 
C 134.342946 175.352811 134.715472 176.252169 135.37848 176.915177 
C 136.041487 177.578184 136.940845 177.950711 137.87848 177.950711 
z
" clip-path="url(#p01a457a97b)" style="fill: #d95f02; stroke: #ffffff; stroke-width: 0.565685"/>
    <path d="M 91.347042 191.374691 
L 98.41811 191.374691 
L 98.41811 184.303623 
L 91.347042 184.303623 
z
" clip-path="url(#p01a457a97b)" style="fill: #d95f02; stroke: #ffffff; stroke-width: 0.565685"/>
    <path d="M 151.361158 181.782774 
C 152.298793 181.782774 153.198151 181.410248 153.861158 180.74724 
C 154.524166 180.084233 154.896692 179.184875 154.896692 178.24724 
C 154.896692 177.309606 154.524166 176.410248 153.861158 175.74724 
C 153.198151 175.084233 152.298793 174.711706 151.361158 174.711706 
C 150.423524 174.711706 149.524166 175.084233 148.861158 175.74724 
C 148.198151 176.410248 147.825625 177.309606 147.825625 178.24724 
C 147.825625 179.184875 148.198151 180.084233 148.861158 180.74724 
C 149.524166 181.410248 150.423524 181.782774 151.361158 181.782774 
z
" clip-path="url(#p01a457a97b)" style="fill: #d95f02; stroke: #ffffff; stroke-width: 0.565685"/>
    <path d="M 260.808636 82.920003 
C 261.746271 82.920003 262.645629 82.547477 263.308636 81.884469 
C 263.971644 81.221462 264.34417 80.322104 264.34417 79.384469 
C 264.34417 78.446835 263.971644 77.547477 263.308636 76.884469 
C 262.645629 76.221462 261.746271 75.848935 260.808636 75.848935 
C 259.871002 75.848935 258.971644 76.221462 258.308636 76.884469 
C 257.645629 77.547477 257.273102 78.446835 257.273102 79.384469 
C 257.273102 80.322104 257.645629 81.221462 258.308636 81.884469 
C 258.971644 82.547477 259.871002 82.920003 260.808636 82.920003 
z
" clip-path="url(#p01a457a97b)" style="fill: #d95f02; stroke: #ffffff; stroke-width: 0.565685"/>
    <path d="M 170.350333 167.919787 
C 171.287967 167.919787 172.187325 167.547261 172.850333 166.884253 
C 173.51334 166.221245 173.885866 165.321888 173.885866 164.384253 
C 173.885866 163.446618 173.51334 162.547261 172.850333 161.884253 
C 172.187325 161.221245 171.287967 160.848719 170.350333 160.848719 
C 169.412698 160.848719 168.51334 161.221245 167.850333 161.884253 
C 167.187325 162.547261 166.814799 163.446618 166.814799 164.384253 
C 166.814799 165.321888 167.187325 166.221245 167.850333 166.884253 
C 168.51334 167.547261 169.412698 167.919787 170.350333 167.919787 
z
" clip-path="url(#p01a457a97b)" style="fill: #d95f02; stroke: #ffffff; stroke-width: 0.565685"/>
   </g>
   <g id="matplotlib.axis_1">
    <g id="xtick_1">
     <g id="line2d_1">
      <defs>
       <path id="m34107ee7b8" d="M 0 0 
L 0 3.5 
" style="stroke: #000000; stroke-width: 0.8"/>
      </defs>
      <g>
       <use xlink:href="#m34107ee7b8" x="62.581364" y="248.6" style="stroke: #000000; stroke-width: 0.8"/>
      </g>
     </g>
     <g id="text_1">
      <!-- 0 -->
      <g transform="translate(58.007614 267.7575) scale(0.16 -0.16)">
       <defs>
        <path id="OpenSans-30" d="M 3341 2291 
Q 3341 1106 2967 521 
Q 2594 -63 1825 -63 
Q 1088 -63 703 535 
Q 319 1134 319 2291 
Q 319 3484 691 4062 
Q 1063 4641 1825 4641 
Q 2569 4641 2955 4037 
Q 3341 3434 3341 2291 
z
M 844 2291 
Q 844 1294 1078 839 
Q 1313 384 1825 384 
Q 2344 384 2576 845 
Q 2809 1306 2809 2291 
Q 2809 3275 2576 3733 
Q 2344 4191 1825 4191 
Q 1313 4191 1078 3739 
Q 844 3288 844 2291 
z
" transform="scale(0.015625)"/>
       </defs>
       <use xlink:href="#OpenSans-30"/>
      </g>
     </g>
    </g>
    <g id="xtick_2">
     <g id="line2d_2">
      <g>
       <use xlink:href="#m34107ee7b8" x="112.138182" y="248.6" style="stroke: #000000; stroke-width: 0.8"/>
      </g>
     </g>
     <g id="text_2">
      <!-- 0.25 -->
      <g transform="translate(96.288182 267.7575) scale(0.16 -0.16)">
       <defs>
        <path id="OpenSans-2e" d="M 475 331 
Q 475 541 570 648 
Q 666 756 844 756 
Q 1025 756 1126 648 
Q 1228 541 1228 331 
Q 1228 128 1125 18 
Q 1022 -91 844 -91 
Q 684 -91 579 7 
Q 475 106 475 331 
z
" transform="scale(0.015625)"/>
        <path id="OpenSans-32" d="M 3316 0 
L 313 0 
L 313 447 
L 1516 1656 
Q 2066 2213 2241 2450 
Q 2416 2688 2503 2913 
Q 2591 3138 2591 3397 
Q 2591 3763 2369 3977 
Q 2147 4191 1753 4191 
Q 1469 4191 1214 4097 
Q 959 4003 647 3756 
L 372 4109 
Q 1003 4634 1747 4634 
Q 2391 4634 2756 4304 
Q 3122 3975 3122 3419 
Q 3122 2984 2878 2559 
Q 2634 2134 1966 1484 
L 966 506 
L 966 481 
L 3316 481 
L 3316 0 
z
" transform="scale(0.015625)"/>
        <path id="OpenSans-35" d="M 1741 2791 
Q 2463 2791 2877 2433 
Q 3291 2075 3291 1453 
Q 3291 744 2839 340 
Q 2388 -63 1594 -63 
Q 822 -63 416 184 
L 416 684 
Q 634 544 959 464 
Q 1284 384 1600 384 
Q 2150 384 2454 643 
Q 2759 903 2759 1394 
Q 2759 2350 1588 2350 
Q 1291 2350 794 2259 
L 525 2431 
L 697 4569 
L 2969 4569 
L 2969 4091 
L 1141 4091 
L 1025 2719 
Q 1384 2791 1741 2791 
z
" transform="scale(0.015625)"/>
       </defs>
       <use xlink:href="#OpenSans-30"/>
       <use xlink:href="#OpenSans-2e" x="57.177734"/>
       <use xlink:href="#OpenSans-32" x="83.789062"/>
       <use xlink:href="#OpenSans-35" x="140.966797"/>
      </g>
     </g>
    </g>
    <g id="xtick_3">
     <g id="line2d_3">
      <g>
       <use xlink:href="#m34107ee7b8" x="161.695" y="248.6" style="stroke: #000000; stroke-width: 0.8"/>
      </g>
     </g>
     <g id="text_3">
      <!-- 0.50 -->
      <g transform="translate(145.845 267.7575) scale(0.16 -0.16)">
       <use xlink:href="#OpenSans-30"/>
       <use xlink:href="#OpenSans-2e" x="57.177734"/>
       <use xlink:href="#OpenSans-35" x="83.789062"/>
       <use xlink:href="#OpenSans-30" x="140.966797"/>
      </g>
     </g>
    </g>
    <g id="xtick_4">
     <g id="line2d_4">
      <g>
       <use xlink:href="#m34107ee7b8" x="211.251818" y="248.6" style="stroke: #000000; stroke-width: 0.8"/>
      </g>
     </g>
     <g id="text_4">
      <!-- 0.75 -->
      <g transform="translate(195.401818 267.7575) scale(0.16 -0.16)">
       <defs>
        <path id="OpenSans-37" d="M 891 0 
L 2784 4091 
L 294 4091 
L 294 4569 
L 3334 4569 
L 3334 4153 
L 1466 0 
L 891 0 
z
" transform="scale(0.015625)"/>
       </defs>
       <use xlink:href="#OpenSans-30"/>
       <use xlink:href="#OpenSans-2e" x="57.177734"/>
       <use xlink:href="#OpenSans-37" x="83.789062"/>
       <use xlink:href="#OpenSans-35" x="140.966797"/>
      </g>
     </g>
    </g>
    <g id="xtick_5">
     <g id="line2d_5">
      <g>
       <use xlink:href="#m34107ee7b8" x="260.808636" y="248.6" style="stroke: #000000; stroke-width: 0.8"/>
      </g>
     </g>
     <g id="text_5">
      <!-- 1 -->
      <g transform="translate(256.234886 267.7575) scale(0.16 -0.16)">
       <defs>
        <path id="OpenSans-31" d="M 2234 0 
L 1728 0 
L 1728 3256 
Q 1728 3663 1753 4025 
Q 1688 3959 1606 3887 
Q 1525 3816 863 3278 
L 588 3634 
L 1797 4569 
L 2234 4569 
L 2234 0 
z
" transform="scale(0.015625)"/>
       </defs>
       <use xlink:href="#OpenSans-31"/>
      </g>
     </g>
    </g>
   </g>
   <g id="matplotlib.axis_2">
    <g id="ytick_1">
     <g id="line2d_6">
      <defs>
       <path id="m6ab5d86c97" d="M 0 0 
L -3.5 0 
" style="stroke: #000000; stroke-width: 0.8"/>
      </defs>
      <g>
       <use xlink:href="#m6ab5d86c97" x="52.67" y="243.985157" style="stroke: #000000; stroke-width: 0.8"/>
      </g>
     </g>
     <g id="text_6">
      <!-- 0 -->
      <g transform="translate(36.5225 250.063907) scale(0.16 -0.16)">
       <use xlink:href="#OpenSans-30"/>
      </g>
     </g>
    </g>
    <g id="ytick_2">
     <g id="line2d_7">
      <g>
       <use xlink:href="#m6ab5d86c97" x="52.67" y="197.836727" style="stroke: #000000; stroke-width: 0.8"/>
      </g>
     </g>
     <g id="text_7">
      <!-- 1 -->
      <g transform="translate(36.5225 203.915477) scale(0.16 -0.16)">
       <use xlink:href="#OpenSans-31"/>
      </g>
     </g>
    </g>
    <g id="ytick_3">
     <g id="line2d_8">
      <g>
       <use xlink:href="#m6ab5d86c97" x="52.67" y="151.688297" style="stroke: #000000; stroke-width: 0.8"/>
      </g>
     </g>
     <g id="text_8">
      <!-- 2 -->
      <g transform="translate(36.5225 157.767047) scale(0.16 -0.16)">
       <use xlink:href="#OpenSans-32"/>
      </g>
     </g>
    </g>
    <g id="ytick_4">
     <g id="line2d_9">
      <g>
       <use xlink:href="#m6ab5d86c97" x="52.67" y="105.539867" style="stroke: #000000; stroke-width: 0.8"/>
      </g>
     </g>
     <g id="text_9">
      <!-- 3 -->
      <g transform="translate(36.5225 111.618617) scale(0.16 -0.16)">
       <defs>
        <path id="OpenSans-33" d="M 3144 3494 
Q 3144 3056 2898 2778 
Q 2653 2500 2203 2406 
L 2203 2381 
Q 2753 2313 3018 2031 
Q 3284 1750 3284 1294 
Q 3284 641 2831 289 
Q 2378 -63 1544 -63 
Q 1181 -63 879 -8 
Q 578 47 294 184 
L 294 678 
Q 591 531 927 454 
Q 1263 378 1563 378 
Q 2747 378 2747 1306 
Q 2747 2138 1441 2138 
L 991 2138 
L 991 2584 
L 1447 2584 
Q 1981 2584 2293 2820 
Q 2606 3056 2606 3475 
Q 2606 3809 2376 4000 
Q 2147 4191 1753 4191 
Q 1453 4191 1187 4109 
Q 922 4028 581 3809 
L 319 4159 
Q 600 4381 967 4507 
Q 1334 4634 1741 4634 
Q 2406 4634 2775 4329 
Q 3144 4025 3144 3494 
z
" transform="scale(0.015625)"/>
       </defs>
       <use xlink:href="#OpenSans-33"/>
      </g>
     </g>
    </g>
    <g id="ytick_5">
     <g id="line2d_10">
      <g>
       <use xlink:href="#m6ab5d86c97" x="52.67" y="59.391437" style="stroke: #000000; stroke-width: 0.8"/>
      </g>
     </g>
     <g id="text_10">
      <!-- 4 -->
      <g transform="translate(36.5225 65.470187) scale(0.16 -0.16)">
       <defs>
        <path id="OpenSans-34" d="M 3531 1050 
L 2853 1050 
L 2853 0 
L 2356 0 
L 2356 1050 
L 134 1050 
L 134 1503 
L 2303 4594 
L 2853 4594 
L 2853 1522 
L 3531 1522 
L 3531 1050 
z
M 2356 1522 
L 2356 3041 
Q 2356 3488 2388 4050 
L 2363 4050 
Q 2213 3750 2081 3553 
L 653 1522 
L 2356 1522 
z
" transform="scale(0.015625)"/>
       </defs>
       <use xlink:href="#OpenSans-34"/>
      </g>
     </g>
    </g>
    <g id="text_11">
     <!-- -log10(mAP p-value) -->
     <g transform="translate(28.6775 224.02075) rotate(-90) scale(0.16 -0.16)">
      <defs>
       <path id="OpenSans-2d" d="M 263 1478 
L 263 1953 
L 1797 1953 
L 1797 1478 
L 263 1478 
z
" transform="scale(0.015625)"/>
       <path id="OpenSans-6c" d="M 1069 0 
L 550 0 
L 550 4863 
L 1069 4863 
L 1069 0 
z
" transform="scale(0.015625)"/>
       <path id="OpenSans-6f" d="M 3506 1716 
Q 3506 878 3084 407 
Q 2663 -63 1919 -63 
Q 1459 -63 1103 153 
Q 747 369 553 772 
Q 359 1175 359 1716 
Q 359 2553 778 3020 
Q 1197 3488 1941 3488 
Q 2659 3488 3082 3009 
Q 3506 2531 3506 1716 
z
M 897 1716 
Q 897 1059 1159 715 
Q 1422 372 1931 372 
Q 2441 372 2705 714 
Q 2969 1056 2969 1716 
Q 2969 2369 2705 2708 
Q 2441 3047 1925 3047 
Q 1416 3047 1156 2712 
Q 897 2378 897 1716 
z
" transform="scale(0.015625)"/>
       <path id="OpenSans-67" d="M 3353 3425 
L 3353 3097 
L 2719 3022 
Q 2806 2913 2875 2736 
Q 2944 2559 2944 2338 
Q 2944 1834 2600 1534 
Q 2256 1234 1656 1234 
Q 1503 1234 1369 1259 
Q 1038 1084 1038 819 
Q 1038 678 1153 611 
Q 1269 544 1550 544 
L 2156 544 
Q 2713 544 3011 309 
Q 3309 75 3309 -372 
Q 3309 -941 2853 -1239 
Q 2397 -1538 1522 -1538 
Q 850 -1538 486 -1288 
Q 122 -1038 122 -581 
Q 122 -269 322 -40 
Q 522 188 884 269 
Q 753 328 664 453 
Q 575 578 575 744 
Q 575 931 675 1072 
Q 775 1213 991 1344 
Q 725 1453 558 1715 
Q 391 1978 391 2316 
Q 391 2878 728 3183 
Q 1066 3488 1684 3488 
Q 1953 3488 2169 3425 
L 3353 3425 
z
M 622 -575 
Q 622 -853 856 -997 
Q 1091 -1141 1528 -1141 
Q 2181 -1141 2495 -945 
Q 2809 -750 2809 -416 
Q 2809 -138 2637 -30 
Q 2466 78 1991 78 
L 1369 78 
Q 1016 78 819 -90 
Q 622 -259 622 -575 
z
M 903 2328 
Q 903 1969 1106 1784 
Q 1309 1600 1672 1600 
Q 2431 1600 2431 2338 
Q 2431 3109 1663 3109 
Q 1297 3109 1100 2912 
Q 903 2716 903 2328 
z
" transform="scale(0.015625)"/>
       <path id="OpenSans-28" d="M 256 1753 
Q 256 2581 498 3303 
Q 741 4025 1197 4569 
L 1703 4569 
Q 1253 3966 1026 3244 
Q 800 2522 800 1759 
Q 800 1009 1031 293 
Q 1263 -422 1697 -1013 
L 1197 -1013 
Q 738 -481 497 228 
Q 256 938 256 1753 
z
" transform="scale(0.015625)"/>
       <path id="OpenSans-6d" d="M 4916 0 
L 4916 2228 
Q 4916 2638 4741 2842 
Q 4566 3047 4197 3047 
Q 3713 3047 3481 2769 
Q 3250 2491 3250 1913 
L 3250 0 
L 2731 0 
L 2731 2228 
Q 2731 2638 2556 2842 
Q 2381 3047 2009 3047 
Q 1522 3047 1295 2755 
Q 1069 2463 1069 1797 
L 1069 0 
L 550 0 
L 550 3425 
L 972 3425 
L 1056 2956 
L 1081 2956 
Q 1228 3206 1495 3347 
Q 1763 3488 2094 3488 
Q 2897 3488 3144 2906 
L 3169 2906 
Q 3322 3175 3612 3331 
Q 3903 3488 4275 3488 
Q 4856 3488 5145 3189 
Q 5434 2891 5434 2234 
L 5434 0 
L 4916 0 
z
" transform="scale(0.015625)"/>
       <path id="OpenSans-41" d="M 3500 0 
L 2931 1453 
L 1100 1453 
L 538 0 
L 0 0 
L 1806 4588 
L 2253 4588 
L 4050 0 
L 3500 0 
z
M 2766 1931 
L 2234 3347 
Q 2131 3616 2022 4006 
Q 1953 3706 1825 3347 
L 1288 1931 
L 2766 1931 
z
" transform="scale(0.015625)"/>
       <path id="OpenSans-50" d="M 3525 3238 
Q 3525 2544 3051 2170 
Q 2578 1797 1697 1797 
L 1159 1797 
L 1159 0 
L 628 0 
L 628 4569 
L 1813 4569 
Q 3525 4569 3525 3238 
z
M 1159 2253 
L 1638 2253 
Q 2344 2253 2659 2481 
Q 2975 2709 2975 3213 
Q 2975 3666 2678 3887 
Q 2381 4109 1753 4109 
L 1159 4109 
L 1159 2253 
z
" transform="scale(0.015625)"/>
       <path id="OpenSans-20" transform="scale(0.015625)"/>
       <path id="OpenSans-70" d="M 2144 -63 
Q 1809 -63 1532 60 
Q 1256 184 1069 441 
L 1031 441 
Q 1069 141 1069 -128 
L 1069 -1538 
L 550 -1538 
L 550 3425 
L 972 3425 
L 1044 2956 
L 1069 2956 
Q 1269 3238 1534 3363 
Q 1800 3488 2144 3488 
Q 2825 3488 3195 3022 
Q 3566 2556 3566 1716 
Q 3566 872 3189 404 
Q 2813 -63 2144 -63 
z
M 2069 3047 
Q 1544 3047 1309 2756 
Q 1075 2466 1069 1831 
L 1069 1716 
Q 1069 994 1309 683 
Q 1550 372 2081 372 
Q 2525 372 2776 731 
Q 3028 1091 3028 1722 
Q 3028 2363 2776 2705 
Q 2525 3047 2069 3047 
z
" transform="scale(0.015625)"/>
       <path id="OpenSans-76" d="M 1300 0 
L 0 3425 
L 556 3425 
L 1294 1394 
Q 1544 681 1588 469 
L 1613 469 
Q 1647 634 1830 1154 
Q 2013 1675 2650 3425 
L 3206 3425 
L 1906 0 
L 1300 0 
z
" transform="scale(0.015625)"/>
       <path id="OpenSans-61" d="M 2656 0 
L 2553 488 
L 2528 488 
Q 2272 166 2017 51 
Q 1763 -63 1381 -63 
Q 872 -63 583 200 
Q 294 463 294 947 
Q 294 1984 1953 2034 
L 2534 2053 
L 2534 2266 
Q 2534 2669 2361 2861 
Q 2188 3053 1806 3053 
Q 1378 3053 838 2791 
L 678 3188 
Q 931 3325 1232 3403 
Q 1534 3481 1838 3481 
Q 2450 3481 2745 3209 
Q 3041 2938 3041 2338 
L 3041 0 
L 2656 0 
z
M 1484 366 
Q 1969 366 2245 631 
Q 2522 897 2522 1375 
L 2522 1684 
L 2003 1663 
Q 1384 1641 1111 1470 
Q 838 1300 838 941 
Q 838 659 1008 512 
Q 1178 366 1484 366 
z
" transform="scale(0.015625)"/>
       <path id="OpenSans-75" d="M 1038 3425 
L 1038 1203 
Q 1038 784 1228 578 
Q 1419 372 1825 372 
Q 2363 372 2611 665 
Q 2859 959 2859 1625 
L 2859 3425 
L 3378 3425 
L 3378 0 
L 2950 0 
L 2875 459 
L 2847 459 
Q 2688 206 2405 71 
Q 2122 -63 1759 -63 
Q 1134 -63 823 234 
Q 513 531 513 1184 
L 513 3425 
L 1038 3425 
z
" transform="scale(0.015625)"/>
       <path id="OpenSans-65" d="M 1997 -63 
Q 1238 -63 798 400 
Q 359 863 359 1684 
Q 359 2513 767 3000 
Q 1175 3488 1863 3488 
Q 2506 3488 2881 3064 
Q 3256 2641 3256 1947 
L 3256 1619 
L 897 1619 
Q 913 1016 1202 703 
Q 1491 391 2016 391 
Q 2569 391 3109 622 
L 3109 159 
Q 2834 41 2589 -11 
Q 2344 -63 1997 -63 
z
M 1856 3053 
Q 1444 3053 1198 2784 
Q 953 2516 909 2041 
L 2700 2041 
Q 2700 2531 2481 2792 
Q 2263 3053 1856 3053 
z
" transform="scale(0.015625)"/>
       <path id="OpenSans-29" d="M 1638 1753 
Q 1638 931 1395 221 
Q 1153 -488 697 -1013 
L 197 -1013 
Q 631 -425 862 292 
Q 1094 1009 1094 1759 
Q 1094 2522 867 3244 
Q 641 3966 191 4569 
L 697 4569 
Q 1156 4022 1397 3298 
Q 1638 2575 1638 1753 
z
" transform="scale(0.015625)"/>
      </defs>
      <use xlink:href="#OpenSans-2d"/>
      <use xlink:href="#OpenSans-6c" x="32.177734"/>
      <use xlink:href="#OpenSans-6f" x="57.470703"/>
      <use xlink:href="#OpenSans-67" x="117.871094"/>
      <use xlink:href="#OpenSans-31" x="172.65625"/>
      <use xlink:href="#OpenSans-30" x="229.833984"/>
      <use xlink:href="#OpenSans-28" x="287.011719"/>
      <use xlink:href="#OpenSans-6d" x="316.601562"/>
      <use xlink:href="#OpenSans-41" x="409.619141"/>
      <use xlink:href="#OpenSans-50" x="472.900391"/>
      <use xlink:href="#OpenSans-20" x="533.105469"/>
      <use xlink:href="#OpenSans-70" x="559.082031"/>
      <use xlink:href="#OpenSans-2d" x="620.361328"/>
      <use xlink:href="#OpenSans-76" x="652.539062"/>
      <use xlink:href="#OpenSans-61" x="702.636719"/>
      <use xlink:href="#OpenSans-6c" x="758.251953"/>
      <use xlink:href="#OpenSans-75" x="783.544922"/>
      <use xlink:href="#OpenSans-65" x="844.921875"/>
      <use xlink:href="#OpenSans-29" x="901.025391"/>
     </g>
    </g>
   </g>
   <g id="line2d_11"/>
   <g id="line2d_12"/>
   <g id="line2d_13"/>
   <g id="line2d_14"/>
   <g id="line2d_15"/>
   <g id="line2d_16"/>
   <g id="line2d_17"/>
   <g id="line2d_18">
    <path d="M 52.67 183.944665 
L 270.72 183.944665 
" clip-path="url(#p01a457a97b)" style="fill: none; stroke-dasharray: 5.55,2.4; stroke-dashoffset: 0; stroke: #808080; stroke-width: 1.5"/>
   </g>
   <g id="patch_3">
    <path d="M 52.67 248.6 
L 52.67 50.544 
" style="fill: none; stroke: #000000; stroke-width: 0.8; stroke-linejoin: miter; stroke-linecap: square"/>
   </g>
   <g id="patch_4">
    <path d="M 270.72 248.6 
L 270.72 50.544 
" style="fill: none; stroke: #000000; stroke-width: 0.8; stroke-linejoin: miter; stroke-linecap: square"/>
   </g>
   <g id="patch_5">
    <path d="M 52.67 248.6 
L 270.72 248.6 
" style="fill: none; stroke: #000000; stroke-width: 0.8; stroke-linejoin: miter; stroke-linecap: square"/>
   </g>
   <g id="patch_6">
    <path d="M 52.67 50.544 
L 270.72 50.544 
" style="fill: none; stroke: #000000; stroke-width: 0.8; stroke-linejoin: miter; stroke-linecap: square"/>
   </g>
   <g id="text_12">
    <!-- Retrieved: -->
    <g transform="translate(74.475 80.2524) scale(0.16 -0.16)">
     <defs>
      <path id="OpenSans-52" d="M 1159 1900 
L 1159 0 
L 628 0 
L 628 4569 
L 1881 4569 
Q 2722 4569 3123 4247 
Q 3525 3925 3525 3278 
Q 3525 2372 2606 2053 
L 3847 0 
L 3219 0 
L 2113 1900 
L 1159 1900 
z
M 1159 2356 
L 1888 2356 
Q 2450 2356 2712 2579 
Q 2975 2803 2975 3250 
Q 2975 3703 2708 3903 
Q 2441 4103 1850 4103 
L 1159 4103 
L 1159 2356 
z
" transform="scale(0.015625)"/>
      <path id="OpenSans-74" d="M 1656 366 
Q 1794 366 1922 386 
Q 2050 406 2125 428 
L 2125 31 
Q 2041 -9 1877 -36 
Q 1713 -63 1581 -63 
Q 588 -63 588 984 
L 588 3022 
L 97 3022 
L 97 3272 
L 588 3488 
L 806 4219 
L 1106 4219 
L 1106 3425 
L 2100 3425 
L 2100 3022 
L 1106 3022 
L 1106 1006 
Q 1106 697 1253 531 
Q 1400 366 1656 366 
z
" transform="scale(0.015625)"/>
      <path id="OpenSans-72" d="M 2113 3488 
Q 2341 3488 2522 3450 
L 2450 2969 
Q 2238 3016 2075 3016 
Q 1659 3016 1364 2678 
Q 1069 2341 1069 1838 
L 1069 0 
L 550 0 
L 550 3425 
L 978 3425 
L 1038 2791 
L 1063 2791 
Q 1253 3125 1522 3306 
Q 1791 3488 2113 3488 
z
" transform="scale(0.015625)"/>
      <path id="OpenSans-69" d="M 1069 0 
L 550 0 
L 550 3425 
L 1069 3425 
L 1069 0 
z
M 506 4353 
Q 506 4531 593 4614 
Q 681 4697 813 4697 
Q 938 4697 1028 4612 
Q 1119 4528 1119 4353 
Q 1119 4178 1028 4092 
Q 938 4006 813 4006 
Q 681 4006 593 4092 
Q 506 4178 506 4353 
z
" transform="scale(0.015625)"/>
      <path id="OpenSans-64" d="M 2881 459 
L 2853 459 
Q 2494 -63 1778 -63 
Q 1106 -63 732 396 
Q 359 856 359 1703 
Q 359 2550 734 3019 
Q 1109 3488 1778 3488 
Q 2475 3488 2847 2981 
L 2888 2981 
L 2866 3228 
L 2853 3469 
L 2853 4863 
L 3372 4863 
L 3372 0 
L 2950 0 
L 2881 459 
z
M 1844 372 
Q 2375 372 2614 661 
Q 2853 950 2853 1594 
L 2853 1703 
Q 2853 2431 2611 2742 
Q 2369 3053 1838 3053 
Q 1381 3053 1139 2698 
Q 897 2344 897 1697 
Q 897 1041 1137 706 
Q 1378 372 1844 372 
z
" transform="scale(0.015625)"/>
      <path id="OpenSans-3a" d="M 475 331 
Q 475 541 570 648 
Q 666 756 844 756 
Q 1025 756 1126 648 
Q 1228 541 1228 331 
Q 1228 128 1125 18 
Q 1022 -91 844 -91 
Q 684 -91 579 7 
Q 475 106 475 331 
z
M 475 3091 
Q 475 3513 844 3513 
Q 1228 3513 1228 3091 
Q 1228 2888 1125 2778 
Q 1022 2669 844 2669 
Q 684 2669 579 2767 
Q 475 2866 475 3091 
z
" transform="scale(0.015625)"/>
     </defs>
     <use xlink:href="#OpenSans-52"/>
     <use xlink:href="#OpenSans-65" x="61.816406"/>
     <use xlink:href="#OpenSans-74" x="117.919922"/>
     <use xlink:href="#OpenSans-72" x="153.222656"/>
     <use xlink:href="#OpenSans-69" x="194.042969"/>
     <use xlink:href="#OpenSans-65" x="219.335938"/>
     <use xlink:href="#OpenSans-76" x="273.439453"/>
     <use xlink:href="#OpenSans-65" x="323.537109"/>
     <use xlink:href="#OpenSans-64" x="379.640625"/>
     <use xlink:href="#OpenSans-3a" x="440.919922"/>
    </g>
   </g>
   <g id="text_13">
    <!-- p=0.05 -->
    <g style="fill: #808080" transform="translate(231.471 179.2804) scale(0.12 -0.12)">
     <defs>
      <path id="OpenSans-3d" d="M 372 2681 
L 372 3109 
L 3278 3109 
L 3278 2681 
L 372 2681 
z
M 372 1403 
L 372 1831 
L 3278 1831 
L 3278 1403 
L 372 1403 
z
" transform="scale(0.015625)"/>
     </defs>
     <use xlink:href="#OpenSans-70"/>
     <use xlink:href="#OpenSans-3d" x="61.279297"/>
     <use xlink:href="#OpenSans-30" x="118.457031"/>
     <use xlink:href="#OpenSans-2e" x="175.634766"/>
     <use xlink:href="#OpenSans-30" x="202.246094"/>
     <use xlink:href="#OpenSans-35" x="259.423828"/>
    </g>
   </g>
   <g id="text_14">
    <!-- 63% -->
    <g style="fill: #1b9e77" transform="translate(74.475 100.058) scale(0.16 -0.16)">
     <defs>
      <path id="OpenSans-36" d="M 366 1953 
Q 366 3300 889 3967 
Q 1413 4634 2438 4634 
Q 2791 4634 2994 4575 
L 2994 4128 
Q 2753 4206 2444 4206 
Q 1709 4206 1321 3748 
Q 934 3291 897 2309 
L 934 2309 
Q 1278 2847 2022 2847 
Q 2638 2847 2992 2475 
Q 3347 2103 3347 1466 
Q 3347 753 2958 345 
Q 2569 -63 1906 -63 
Q 1197 -63 781 470 
Q 366 1003 366 1953 
z
M 1900 378 
Q 2344 378 2589 658 
Q 2834 938 2834 1466 
Q 2834 1919 2606 2178 
Q 2378 2438 1925 2438 
Q 1644 2438 1409 2322 
Q 1175 2206 1036 2003 
Q 897 1800 897 1581 
Q 897 1259 1022 981 
Q 1147 703 1376 540 
Q 1606 378 1900 378 
z
" transform="scale(0.015625)"/>
      <path id="OpenSans-25" d="M 756 3206 
Q 756 2675 872 2409 
Q 988 2144 1247 2144 
Q 1759 2144 1759 3206 
Q 1759 4263 1247 4263 
Q 988 4263 872 4000 
Q 756 3738 756 3206 
z
M 2188 3206 
Q 2188 2494 1948 2130 
Q 1709 1766 1247 1766 
Q 809 1766 567 2137 
Q 325 2509 325 3206 
Q 325 3916 558 4275 
Q 791 4634 1247 4634 
Q 1700 4634 1944 4262 
Q 2188 3891 2188 3206 
z
M 3506 1375 
Q 3506 841 3622 577 
Q 3738 313 4000 313 
Q 4263 313 4388 573 
Q 4513 834 4513 1375 
Q 4513 1909 4388 2167 
Q 4263 2425 4000 2425 
Q 3738 2425 3622 2167 
Q 3506 1909 3506 1375 
z
M 4941 1375 
Q 4941 666 4702 301 
Q 4463 -63 4000 -63 
Q 3556 -63 3317 309 
Q 3078 681 3078 1375 
Q 3078 2084 3311 2443 
Q 3544 2803 4000 2803 
Q 4444 2803 4692 2436 
Q 4941 2069 4941 1375 
z
M 4134 4569 
L 1600 0 
L 1141 0 
L 3675 4569 
L 4134 4569 
z
" transform="scale(0.015625)"/>
     </defs>
     <use xlink:href="#OpenSans-36"/>
     <use xlink:href="#OpenSans-33" x="57.177734"/>
     <use xlink:href="#OpenSans-25" x="114.355469"/>
    </g>
   </g>
   <g id="text_15">
    <!-- 90% -->
    <g style="fill: #7570b3" transform="translate(109.363 100.058) scale(0.16 -0.16)">
     <defs>
      <path id="OpenSans-39" d="M 3316 2619 
Q 3316 -63 1241 -63 
Q 878 -63 666 0 
L 666 447 
Q 916 366 1234 366 
Q 1984 366 2367 830 
Q 2750 1294 2784 2253 
L 2747 2253 
Q 2575 1994 2290 1858 
Q 2006 1722 1650 1722 
Q 1044 1722 687 2084 
Q 331 2447 331 3097 
Q 331 3809 729 4221 
Q 1128 4634 1778 4634 
Q 2244 4634 2592 4395 
Q 2941 4156 3128 3698 
Q 3316 3241 3316 2619 
z
M 1778 4191 
Q 1331 4191 1087 3903 
Q 844 3616 844 3103 
Q 844 2653 1069 2395 
Q 1294 2138 1753 2138 
Q 2038 2138 2277 2253 
Q 2516 2369 2653 2569 
Q 2791 2769 2791 2988 
Q 2791 3316 2662 3594 
Q 2534 3872 2304 4031 
Q 2075 4191 1778 4191 
z
" transform="scale(0.015625)"/>
     </defs>
     <use xlink:href="#OpenSans-39"/>
     <use xlink:href="#OpenSans-30" x="57.177734"/>
     <use xlink:href="#OpenSans-25" x="114.355469"/>
    </g>
   </g>
   <g id="text_16">
    <!-- 72% -->
    <g style="fill: #d95f02" transform="translate(144.251 100.058) scale(0.16 -0.16)">
     <use xlink:href="#OpenSans-37"/>
     <use xlink:href="#OpenSans-32" x="57.177734"/>
     <use xlink:href="#OpenSans-25" x="114.355469"/>
    </g>
   </g>
   <g id="text_17">
    <!-- (75%) -->
    <g transform="translate(179.139 100.058) scale(0.16 -0.16)">
     <use xlink:href="#OpenSans-28"/>
     <use xlink:href="#OpenSans-37" x="29.589844"/>
     <use xlink:href="#OpenSans-35" x="86.767578"/>
     <use xlink:href="#OpenSans-25" x="143.945312"/>
     <use xlink:href="#OpenSans-29" x="226.269531"/>
    </g>
   </g>
   <g id="axes_2">
    <g id="patch_7">
     <path d="M 52.67 50.544 
L 270.72 50.544 
L 270.72 20.8356 
L 52.67 20.8356 
z
" style="fill: #ffffff"/>
    </g>
    <g id="line2d_19">
     <path d="M 24.621929 47.870245 
L 38.56778 46.529053 
L 66.459482 43.742801 
L 76.221577 43.00809 
L 85.983673 42.503056 
L 95.745769 42.245875 
L 105.507864 42.212021 
L 119.453715 42.419658 
L 140.372492 42.756681 
L 151.529173 42.696153 
L 161.291268 42.423507 
L 171.053364 41.928231 
L 180.81546 41.219542 
L 191.97214 40.189546 
L 211.496332 38.095601 
L 224.047598 36.869018 
L 232.415108 36.272926 
L 239.388034 35.987377 
L 246.360959 35.940544 
L 253.333885 36.162064 
L 258.912225 36.540573 
L 265.88515 37.258333 
L 272.858076 38.220922 
L 281.225587 39.631892 
L 289 41.104459 
L 289 41.104459 
" clip-path="url(#p9a5bf0a9d8)" style="fill: none; stroke: #1b9e77; stroke-width: 1.5; stroke-linecap: square"/>
    </g>
    <g id="line2d_20">
     <path d="M 66.153228 49.193618 
L 79.628793 48.231659 
L 117.80956 45.336925 
L 130.162161 44.720162 
L 142.514762 44.347635 
L 157.113291 44.165659 
L 179.572565 43.937152 
L 186.310348 43.653053 
L 191.925166 43.218372 
L 196.417021 42.685921 
L 200.908876 41.944544 
L 205.400731 40.956723 
L 209.892586 39.695 
L 214.384441 38.148893 
L 218.876296 36.331481 
L 223.368151 34.284406 
L 231.228897 30.383835 
L 237.966679 27.108891 
L 242.458534 25.200109 
L 245.827425 24.010847 
L 249.196317 23.087466 
L 252.565208 22.47292 
L 254.811135 22.250777 
L 257.057063 22.185982 
L 259.30299 22.28153 
L 261.548918 22.537415 
L 263.794845 22.950632 
L 267.163736 23.851778 
L 270.532627 25.061847 
L 273.901519 26.538119 
L 278.393374 28.83069 
L 284.008192 32.024737 
L 289 34.967142 
L 289 34.967142 
" clip-path="url(#p9a5bf0a9d8)" style="fill: none; stroke: #7570b3; stroke-width: 1.5; stroke-linecap: square"/>
    </g>
    <g id="line2d_21">
     <path d="M 26.860628 47.450621 
L 37.717178 46.014399 
L 68.929759 41.661619 
L 77.072171 40.842152 
L 85.214584 40.240437 
L 93.356996 39.848536 
L 102.856477 39.611635 
L 115.070096 39.55084 
L 129.997852 39.716433 
L 143.568539 40.083328 
L 157.139227 40.692882 
L 185.63767 42.137904 
L 193.780082 42.240357 
L 200.565426 42.10837 
L 207.35077 41.756247 
L 214.136113 41.193291 
L 223.635595 40.138716 
L 239.920419 38.249632 
L 246.705763 37.728054 
L 252.134038 37.524054 
L 257.562313 37.546354 
L 262.990588 37.810985 
L 268.418863 38.315486 
L 273.847138 39.039505 
L 280.632481 40.197763 
L 289 41.881747 
L 289 41.881747 
" clip-path="url(#p9a5bf0a9d8)" style="fill: none; stroke: #d95f02; stroke-width: 1.5; stroke-linecap: square"/>
    </g>
   </g>
  </g>
  <g id="text_18">
   <!-- mAP -->
   <g transform="translate(132.44 289.27625) scale(0.16 -0.16)">
    <use xlink:href="#OpenSans-6d"/>
    <use xlink:href="#OpenSans-41" x="93.017578"/>
    <use xlink:href="#OpenSans-50" x="156.298828"/>
   </g>
  </g>
  <g id="legend_1">
   <g id="line2d_22"/>
   <g id="text_19">
    <!-- Cell type -->
    <g transform="translate(321.69125 84.1575) scale(0.16 -0.16)">
     <defs>
      <path id="OpenSans-43" d="M 2584 4159 
Q 1831 4159 1395 3657 
Q 959 3156 959 2284 
Q 959 1388 1379 898 
Q 1800 409 2578 409 
Q 3056 409 3669 581 
L 3669 116 
Q 3194 -63 2497 -63 
Q 1488 -63 939 550 
Q 391 1163 391 2291 
Q 391 2997 655 3528 
Q 919 4059 1417 4346 
Q 1916 4634 2591 4634 
Q 3309 4634 3847 4372 
L 3622 3916 
Q 3103 4159 2584 4159 
z
" transform="scale(0.015625)"/>
      <path id="OpenSans-79" d="M 6 3425 
L 563 3425 
L 1313 1472 
Q 1559 803 1619 506 
L 1644 506 
Q 1684 666 1814 1052 
Q 1944 1438 2663 3425 
L 3219 3425 
L 1747 -475 
Q 1528 -1053 1236 -1295 
Q 944 -1538 519 -1538 
Q 281 -1538 50 -1484 
L 50 -1069 
Q 222 -1106 434 -1106 
Q 969 -1106 1197 -506 
L 1388 -19 
L 6 3425 
z
" transform="scale(0.015625)"/>
     </defs>
     <use xlink:href="#OpenSans-43"/>
     <use xlink:href="#OpenSans-65" x="63.085938"/>
     <use xlink:href="#OpenSans-6c" x="119.189453"/>
     <use xlink:href="#OpenSans-6c" x="144.482422"/>
     <use xlink:href="#OpenSans-20" x="169.775391"/>
     <use xlink:href="#OpenSans-74" x="195.751953"/>
     <use xlink:href="#OpenSans-79" x="231.054688"/>
     <use xlink:href="#OpenSans-70" x="281.445312"/>
     <use xlink:href="#OpenSans-65" x="342.724609"/>
    </g>
   </g>
   <g id="line2d_23">
    <defs>
     <path id="m02b45c6bae" d="M 0 3.535534 
C 0.937635 3.535534 1.836992 3.163008 2.5 2.5 
C 3.163008 1.836992 3.535534 0.937635 3.535534 0 
C 3.535534 -0.937635 3.163008 -1.836992 2.5 -2.5 
C 1.836992 -3.163008 0.937635 -3.535534 0 -3.535534 
C -0.937635 -3.535534 -1.836992 -3.163008 -2.5 -2.5 
C -3.163008 -1.836992 -3.535534 -0.937635 -3.535534 0 
C -3.535534 0.937635 -3.163008 1.836992 -2.5 2.5 
C -1.836992 3.163008 -0.937635 3.535534 0 3.535534 
z
" style="stroke: #ffffff; stroke-width: 0.565685"/>
    </defs>
    <g>
     <use xlink:href="#m02b45c6bae" x="292.89125" y="102.56" style="fill: #1b9e77; stroke: #ffffff; stroke-width: 0.565685"/>
    </g>
   </g>
   <g id="text_20">
    <!-- A549 -->
    <g transform="translate(321.69125 108.16) scale(0.16 -0.16)">
     <use xlink:href="#OpenSans-41"/>
     <use xlink:href="#OpenSans-35" x="63.28125"/>
     <use xlink:href="#OpenSans-34" x="120.458984"/>
     <use xlink:href="#OpenSans-39" x="177.636719"/>
    </g>
   </g>
   <g id="line2d_24">
    <defs>
     <path id="m5fc58621d4" d="M 0 3.535534 
C 0.937635 3.535534 1.836992 3.163008 2.5 2.5 
C 3.163008 1.836992 3.535534 0.937635 3.535534 0 
C 3.535534 -0.937635 3.163008 -1.836992 2.5 -2.5 
C 1.836992 -3.163008 0.937635 -3.535534 0 -3.535534 
C -0.937635 -3.535534 -1.836992 -3.163008 -2.5 -2.5 
C -3.163008 -1.836992 -3.535534 -0.937635 -3.535534 0 
C -3.535534 0.937635 -3.163008 1.836992 -2.5 2.5 
C -1.836992 3.163008 -0.937635 3.535534 0 3.535534 
z
" style="stroke: #ffffff; stroke-width: 0.565685"/>
    </defs>
    <g>
     <use xlink:href="#m5fc58621d4" x="292.89125" y="126.5625" style="fill: #7570b3; stroke: #ffffff; stroke-width: 0.565685"/>
    </g>
   </g>
   <g id="text_21">
    <!-- ES2 -->
    <g transform="translate(321.69125 132.1625) scale(0.16 -0.16)">
     <defs>
      <path id="OpenSans-45" d="M 3175 0 
L 628 0 
L 628 4569 
L 3175 4569 
L 3175 4097 
L 1159 4097 
L 1159 2625 
L 3053 2625 
L 3053 2156 
L 1159 2156 
L 1159 475 
L 3175 475 
L 3175 0 
z
" transform="scale(0.015625)"/>
      <path id="OpenSans-53" d="M 3206 1216 
Q 3206 613 2768 275 
Q 2331 -63 1581 -63 
Q 769 -63 331 147 
L 331 659 
Q 613 541 944 472 
Q 1275 403 1600 403 
Q 2131 403 2400 604 
Q 2669 806 2669 1166 
Q 2669 1403 2573 1554 
Q 2478 1706 2254 1834 
Q 2031 1963 1575 2125 
Q 938 2353 664 2665 
Q 391 2978 391 3481 
Q 391 4009 787 4321 
Q 1184 4634 1838 4634 
Q 2519 4634 3091 4384 
L 2925 3922 
Q 2359 4159 1825 4159 
Q 1403 4159 1165 3978 
Q 928 3797 928 3475 
Q 928 3238 1015 3086 
Q 1103 2934 1311 2807 
Q 1519 2681 1947 2528 
Q 2666 2272 2936 1978 
Q 3206 1684 3206 1216 
z
" transform="scale(0.015625)"/>
     </defs>
     <use xlink:href="#OpenSans-45"/>
     <use xlink:href="#OpenSans-53" x="55.615234"/>
     <use xlink:href="#OpenSans-32" x="110.498047"/>
    </g>
   </g>
   <g id="line2d_25">
    <defs>
     <path id="me7425d6a1c" d="M 0 3.535534 
C 0.937635 3.535534 1.836992 3.163008 2.5 2.5 
C 3.163008 1.836992 3.535534 0.937635 3.535534 0 
C 3.535534 -0.937635 3.163008 -1.836992 2.5 -2.5 
C 1.836992 -3.163008 0.937635 -3.535534 0 -3.535534 
C -0.937635 -3.535534 -1.836992 -3.163008 -2.5 -2.5 
C -3.163008 -1.836992 -3.535534 -0.937635 -3.535534 0 
C -3.535534 0.937635 -3.163008 1.836992 -2.5 2.5 
C -1.836992 3.163008 -0.937635 3.535534 0 3.535534 
z
" style="stroke: #ffffff; stroke-width: 0.565685"/>
    </defs>
    <g>
     <use xlink:href="#me7425d6a1c" x="292.89125" y="150.565" style="fill: #d95f02; stroke: #ffffff; stroke-width: 0.565685"/>
    </g>
   </g>
   <g id="text_22">
    <!-- HCC44 -->
    <g transform="translate(321.69125 156.165) scale(0.16 -0.16)">
     <defs>
      <path id="OpenSans-48" d="M 4097 0 
L 3566 0 
L 3566 2150 
L 1159 2150 
L 1159 0 
L 628 0 
L 628 4569 
L 1159 4569 
L 1159 2625 
L 3566 2625 
L 3566 4569 
L 4097 4569 
L 4097 0 
z
" transform="scale(0.015625)"/>
     </defs>
     <use xlink:href="#OpenSans-48"/>
     <use xlink:href="#OpenSans-43" x="73.779297"/>
     <use xlink:href="#OpenSans-43" x="134.865234"/>
     <use xlink:href="#OpenSans-34" x="197.951172"/>
     <use xlink:href="#OpenSans-34" x="255.128906"/>
    </g>
   </g>
   <g id="line2d_26"/>
   <g id="line2d_27">
    <defs>
     <path id="mb36c2b22f3" d="M 0 3.535534 
C 0.937635 3.535534 1.836992 3.163008 2.5 2.5 
C 3.163008 1.836992 3.535534 0.937635 3.535534 0 
C 3.535534 -0.937635 3.163008 -1.836992 2.5 -2.5 
C 1.836992 -3.163008 0.937635 -3.535534 0 -3.535534 
C -0.937635 -3.535534 -1.836992 -3.163008 -2.5 -2.5 
C -3.163008 -1.836992 -3.535534 -0.937635 -3.535534 0 
C -3.535534 0.937635 -3.163008 1.836992 -2.5 2.5 
C -1.836992 3.163008 -0.937635 3.535534 0 3.535534 
z
" style="stroke: #ffffff; stroke-width: 0.565685"/>
    </defs>
    <g>
     <use xlink:href="#mb36c2b22f3" x="292.89125" y="198.57" style="fill: #333333; stroke: #ffffff; stroke-width: 0.565685"/>
    </g>
   </g>
   <g id="text_23">
    <!-- p&lt;0.05 -->
    <g transform="translate(321.69125 204.17) scale(0.16 -0.16)">
     <defs>
      <path id="OpenSans-3c" d="M 3328 756 
L 325 2075 
L 325 2381 
L 3328 3878 
L 3328 3413 
L 884 2253 
L 3328 1228 
L 3328 756 
z
" transform="scale(0.015625)"/>
     </defs>
     <use xlink:href="#OpenSans-70"/>
     <use xlink:href="#OpenSans-3c" x="61.279297"/>
     <use xlink:href="#OpenSans-30" x="118.457031"/>
     <use xlink:href="#OpenSans-2e" x="175.634766"/>
     <use xlink:href="#OpenSans-30" x="202.246094"/>
     <use xlink:href="#OpenSans-35" x="259.423828"/>
    </g>
   </g>
   <g id="line2d_28">
    <defs>
     <path id="m6bbd0c3567" d="M -3.535534 3.535534 
L 3.535534 3.535534 
L 3.535534 -3.535534 
L -3.535534 -3.535534 
z
" style="stroke: #ffffff; stroke-width: 0.565685; stroke-linejoin: miter"/>
    </defs>
    <g>
     <use xlink:href="#m6bbd0c3567" x="292.89125" y="222.5725" style="fill: #333333; stroke: #ffffff; stroke-width: 0.565685; stroke-linejoin: miter"/>
    </g>
   </g>
   <g id="text_24">
    <!-- p&gt;=0.05 -->
    <g transform="translate(321.69125 228.1725) scale(0.16 -0.16)">
     <defs>
      <path id="OpenSans-3e" d="M 325 1228 
L 2772 2247 
L 325 3413 
L 325 3878 
L 3328 2381 
L 3328 2075 
L 325 756 
L 325 1228 
z
" transform="scale(0.015625)"/>
     </defs>
     <use xlink:href="#OpenSans-70"/>
     <use xlink:href="#OpenSans-3e" x="61.279297"/>
     <use xlink:href="#OpenSans-3d" x="118.457031"/>
     <use xlink:href="#OpenSans-30" x="175.634766"/>
     <use xlink:href="#OpenSans-2e" x="232.8125"/>
     <use xlink:href="#OpenSans-30" x="259.423828"/>
     <use xlink:href="#OpenSans-35" x="316.601562"/>
    </g>
   </g>
  </g>
 </g>
 <defs>
  <clipPath id="p01a457a97b">
   <rect x="52.67" y="50.544" width="218.05" height="198.056"/>
  </clipPath>
  <clipPath id="p9a5bf0a9d8">
   <rect x="52.67" y="20.8356" width="218.05" height="29.7084"/>
  </clipPath>
 </defs>
</svg>
