<?xml version="1.0" encoding="UTF-8" standalone="no"?>
<!DOCTYPE svg PUBLIC "-//W3C//DTD SVG 1.1//EN"
 "http://www.w3.org/Graphics/SVG/1.1/DTD/svg11.dtd">
<!-- Generated by graphviz version 9.0.0 (20230911.1827)
 -->
<!-- Title: snakemake_dag Pages: 1 -->
<svg width="212pt" height="404pt"
 viewBox="0.00 0.00 212.38 404.00" xmlns="http://www.w3.org/2000/svg" xmlns:xlink="http://www.w3.org/1999/xlink">
<g id="graph0" class="graph" transform="scale(1 1) rotate(0) translate(4 400)">
<title>snakemake_dag</title>
<polygon fill="white" stroke="none" points="-4,4 -4,-400 208.38,-400 208.38,4 -4,4"/>
<!-- 0 -->
<g id="node1" class="node">
<title>0</title>
<path fill="none" stroke="#59d856" stroke-width="2" d="M101.5,-36C101.5,-36 71.5,-36 71.5,-36 65.5,-36 59.5,-30 59.5,-24 59.5,-24 59.5,-12 59.5,-12 59.5,-6 65.5,0 71.5,0 71.5,0 101.5,0 101.5,0 107.5,0 113.5,-6 113.5,-12 113.5,-12 113.5,-24 113.5,-24 113.5,-30 107.5,-36 101.5,-36"/>
<text text-anchor="middle" x="86.5" y="-14.12" font-family="sans" font-size="10.00">all</text>
</g>
<!-- 1 -->
<g id="node2" class="node">
<title>1</title>
<path fill="none" stroke="#97d856" stroke-width="2" d="M67,-180C67,-180 12,-180 12,-180 6,-180 0,-174 0,-168 0,-168 0,-156 0,-156 0,-150 6,-144 12,-144 12,-144 67,-144 67,-144 73,-144 79,-150 79,-156 79,-156 79,-168 79,-168 79,-174 73,-180 67,-180"/>
<text text-anchor="middle" x="39.5" y="-158.12" font-family="sans" font-size="10.00">map_technical</text>
</g>
<!-- 1&#45;&gt;0 -->
<g id="edge1" class="edge">
<title>1&#45;&gt;0</title>
<path fill="none" stroke="grey" stroke-width="2" d="M45.45,-143.02C53.29,-119.33 67.19,-77.35 76.62,-48.86"/>
<polygon fill="grey" stroke="grey" stroke-width="2" points="79.83,-50.31 79.64,-39.71 73.18,-48.11 79.83,-50.31"/>
</g>
<!-- 2 -->
<g id="node3" class="node">
<title>2</title>
<path fill="none" stroke="#56d89a" stroke-width="2" d="M62.88,-324C62.88,-324 16.12,-324 16.12,-324 10.12,-324 4.12,-318 4.12,-312 4.12,-312 4.12,-300 4.12,-300 4.12,-294 10.12,-288 16.12,-288 16.12,-288 62.88,-288 62.88,-288 68.88,-288 74.88,-294 74.88,-300 74.88,-300 74.88,-312 74.88,-312 74.88,-318 68.88,-324 62.88,-324"/>
<text text-anchor="middle" x="39.5" y="-302.12" font-family="sans" font-size="10.00">ap_technical</text>
</g>
<!-- 2&#45;&gt;1 -->
<g id="edge3" class="edge">
<title>2&#45;&gt;1</title>
<path fill="none" stroke="grey" stroke-width="2" d="M39.5,-287.02C39.5,-263.54 39.5,-222.11 39.5,-193.64"/>
<polygon fill="grey" stroke="grey" stroke-width="2" points="43,-193.87 39.5,-183.87 36,-193.87 43,-193.87"/>
</g>
<!-- 3 -->
<g id="node4" class="node">
<title>3</title>
<path fill="none" stroke="#56d8d8" stroke-width="2" d="M119.12,-396C119.12,-396 85.88,-396 85.88,-396 79.88,-396 73.88,-390 73.88,-384 73.88,-384 73.88,-372 73.88,-372 73.88,-366 79.88,-360 85.88,-360 85.88,-360 119.12,-360 119.12,-360 125.12,-360 131.12,-366 131.12,-372 131.12,-372 131.12,-384 131.12,-384 131.12,-390 125.12,-396 119.12,-396"/>
<text text-anchor="middle" x="102.5" y="-374.12" font-family="sans" font-size="10.00">download</text>
</g>
<!-- 3&#45;&gt;2 -->
<g id="edge4" class="edge">
<title>3&#45;&gt;2</title>
<path fill="none" stroke="grey" stroke-width="2" d="M86.6,-359.34C79.79,-351.77 71.68,-342.75 64.12,-334.35"/>
<polygon fill="grey" stroke="grey" stroke-width="2" points="66.93,-332.24 57.64,-327.15 61.72,-336.93 66.93,-332.24"/>
</g>
<!-- 6 -->
<g id="node7" class="node">
<title>6</title>
<path fill="none" stroke="#d6d856" stroke-width="2" d="M158,-252C158,-252 109,-252 109,-252 103,-252 97,-246 97,-240 97,-240 97,-228 97,-228 97,-222 103,-216 109,-216 109,-216 158,-216 158,-216 164,-216 170,-222 170,-228 170,-228 170,-240 170,-240 170,-246 164,-252 158,-252"/>
<text text-anchor="middle" x="133.5" y="-230.12" font-family="sans" font-size="10.00">label_profiles</text>
</g>
<!-- 3&#45;&gt;6 -->
<g id="edge8" class="edge">
<title>3&#45;&gt;6</title>
<path fill="none" stroke="grey" stroke-width="2" d="M106.22,-359.26C110.01,-341.28 116.07,-312.69 121.5,-288 123.12,-280.63 124.9,-272.69 126.58,-265.26"/>
<polygon fill="grey" stroke="grey" stroke-width="2" points="129.97,-266.13 128.77,-255.61 123.15,-264.58 129.97,-266.13"/>
</g>
<!-- 7 -->
<g id="node8" class="node">
<title>7</title>
<path fill="none" stroke="#d89556" stroke-width="2" d="M192.38,-324C192.38,-324 142.62,-324 142.62,-324 136.62,-324 130.62,-318 130.62,-312 130.62,-312 130.62,-300 130.62,-300 130.62,-294 136.62,-288 142.62,-288 142.62,-288 192.38,-288 192.38,-288 198.38,-288 204.38,-294 204.38,-300 204.38,-300 204.38,-312 204.38,-312 204.38,-318 198.38,-324 192.38,-324"/>
<text text-anchor="middle" x="167.5" y="-302.12" font-family="sans" font-size="10.00">merge_labels</text>
</g>
<!-- 3&#45;&gt;7 -->
<g id="edge9" class="edge">
<title>3&#45;&gt;7</title>
<path fill="none" stroke="grey" stroke-width="2" d="M118.9,-359.34C125.93,-351.77 134.3,-342.75 142.1,-334.35"/>
<polygon fill="grey" stroke="grey" stroke-width="2" points="144.58,-336.83 148.82,-327.12 139.45,-332.07 144.58,-336.83"/>
</g>
<!-- 4 -->
<g id="node5" class="node">
<title>4</title>
<path fill="none" stroke="#569ad8" stroke-width="2" d="M154.75,-108C154.75,-108 98.25,-108 98.25,-108 92.25,-108 86.25,-102 86.25,-96 86.25,-96 86.25,-84 86.25,-84 86.25,-78 92.25,-72 98.25,-72 98.25,-72 154.75,-72 154.75,-72 160.75,-72 166.75,-78 166.75,-84 166.75,-84 166.75,-96 166.75,-96 166.75,-102 160.75,-108 154.75,-108"/>
<text text-anchor="middle" x="126.5" y="-86.12" font-family="sans" font-size="10.00">map_biological</text>
</g>
<!-- 4&#45;&gt;0 -->
<g id="edge2" class="edge">
<title>4&#45;&gt;0</title>
<path fill="none" stroke="grey" stroke-width="2" d="M116.41,-71.34C112.36,-64.26 107.6,-55.92 103.07,-48"/>
<polygon fill="grey" stroke="grey" stroke-width="2" points="106.23,-46.48 98.23,-39.53 100.15,-49.95 106.23,-46.48"/>
</g>
<!-- 5 -->
<g id="node6" class="node">
<title>5</title>
<path fill="none" stroke="#d85656" stroke-width="2" d="M157.62,-180C157.62,-180 109.38,-180 109.38,-180 103.38,-180 97.38,-174 97.38,-168 97.38,-168 97.38,-156 97.38,-156 97.38,-150 103.38,-144 109.38,-144 109.38,-144 157.62,-144 157.62,-144 163.62,-144 169.62,-150 169.62,-156 169.62,-156 169.62,-168 169.62,-168 169.62,-174 163.62,-180 157.62,-180"/>
<text text-anchor="middle" x="133.5" y="-158.12" font-family="sans" font-size="10.00">ap_biological</text>
</g>
<!-- 5&#45;&gt;4 -->
<g id="edge5" class="edge">
<title>5&#45;&gt;4</title>
<path fill="none" stroke="grey" stroke-width="2" d="M131.73,-143.34C131.08,-136.75 130.31,-129.08 129.57,-121.67"/>
<polygon fill="grey" stroke="grey" stroke-width="2" points="133.07,-121.52 128.59,-111.91 126.1,-122.21 133.07,-121.52"/>
</g>
<!-- 6&#45;&gt;5 -->
<g id="edge6" class="edge">
<title>6&#45;&gt;5</title>
<path fill="none" stroke="grey" stroke-width="2" d="M133.5,-215.34C133.5,-208.75 133.5,-201.08 133.5,-193.67"/>
<polygon fill="grey" stroke="grey" stroke-width="2" points="137,-193.93 133.5,-183.93 130,-193.93 137,-193.93"/>
</g>
<!-- 7&#45;&gt;6 -->
<g id="edge7" class="edge">
<title>7&#45;&gt;6</title>
<path fill="none" stroke="grey" stroke-width="2" d="M158.92,-287.34C155.56,-280.43 151.62,-272.31 147.86,-264.56"/>
<polygon fill="grey" stroke="grey" stroke-width="2" points="151.04,-263.09 143.52,-255.62 144.74,-266.15 151.04,-263.09"/>
</g>
</g>
</svg>
